<svg width="36" height="24" viewBox="0 0 36 24" fill="none" xmlns="http://www.w3.org/2000/svg">
<path d="M25.0604 18.4211L25.3122 16.7579C26.0317 6.18715 21.9665 2.89764 19.844 2.57422H18.9806L18.9806 5.50883C22.0313 9.35274 21.211 15.8185 20.4196 18.4211H25.0604Z" fill="#56CDF7"/>
<path d="M22.4146 8.02922C22.129 7.19204 21.8664 6.02784 20.3246 5.28223" stroke="#8FDFF8" stroke-width="0.240057" stroke-linecap="round"/>
<path d="M23.1613 12.1155C23.2354 11.3014 23.4471 10.2334 22.471 8.89267" stroke="#8FDFF8" stroke-width="0.218629" stroke-linecap="round"/>
<path d="M34.1411 20.4542C33.1368 20.4542 33.1368 21.1432 32.1323 21.1432C31.1278 21.1432 31.1281 20.4542 30.1235 20.4542C29.119 20.4542 29.1193 21.1432 28.1147 21.1432C27.1102 21.1432 27.1102 20.4542 26.1054 20.4542C25.1006 20.4542 25.1004 21.1432 24.0953 21.1432C23.0903 21.1432 23.0908 20.4542 22.086 20.4542C21.0812 20.4542 21.0807 21.1432 20.0754 21.1432C19.0701 21.1432 19.0699 20.4542 18.0646 20.4542V19.0762C19.0699 19.0762 19.0699 19.7652 20.0754 19.7652C21.081 19.7652 21.0807 19.0762 22.086 19.0762C23.0913 19.0762 23.0908 19.7652 24.0953 19.7652C25.0999 19.7652 25.1004 19.0762 26.1054 19.0762C27.1105 19.0762 27.1102 19.7652 28.1147 19.7652C29.1193 19.7652 29.1193 19.0762 30.1235 19.0762C31.1278 19.0762 31.1281 19.7652 32.1323 19.7652C33.1366 19.7652 33.1368 19.0762 34.1411 19.0762V20.4542Z" fill="#0188A4"/>
<path d="M20.0754 21.1426C21.0807 21.1426 21.0807 20.4536 22.086 20.4536C23.0913 20.4536 23.0908 21.1426 24.0953 21.1426C25.0999 21.1426 25.1004 20.4536 26.1054 20.4536C27.1105 20.4536 27.1102 21.1426 28.1147 21.1426C29.1193 21.1426 29.1193 20.4536 30.1235 20.4536C31.1278 20.4536 31.1281 21.1426 32.1323 21.1426C33.1366 21.1426 33.1368 20.4536 34.1411 20.4536V22.5206H18.0646V20.4536C19.0699 20.4536 19.0699 21.1426 20.0754 21.1426Z" fill="#56CDF7"/>
<path d="M34.1411 19.0748C33.1368 19.0748 33.1368 19.7638 32.1323 19.7638C31.1278 19.7638 31.1281 19.0748 30.1235 19.0748C29.119 19.0748 29.1193 19.7638 28.1147 19.7638C27.1102 19.7638 27.1102 19.0748 26.1054 19.0748C25.1006 19.0748 25.1004 19.7638 24.0953 19.7638C23.0903 19.7638 23.0908 19.0748 22.086 19.0748C21.0812 19.0748 21.0807 19.7638 20.0754 19.7638C19.0701 19.7638 19.0699 19.0748 18.0646 19.0748V17.6968C19.0699 17.6968 19.0699 18.3858 20.0754 18.3858C21.081 18.3858 21.0807 17.6968 22.086 17.6968C23.0913 17.6968 23.0908 18.3858 24.0953 18.3858C25.0999 18.3858 25.1004 17.6968 26.1054 17.6968C27.1105 17.6968 27.1102 18.3858 28.1147 18.3858C29.1193 18.3858 29.1193 17.6968 30.1235 17.6968C31.1278 17.6968 31.1281 18.3858 32.1323 18.3858C33.1366 18.3858 33.1368 17.6968 34.1411 17.6968V19.0748Z" fill="#56CDF7"/>
<path d="M34.1411 17.6988C33.1368 17.6988 33.1368 18.3878 32.1323 18.3878C31.1278 18.3878 31.1281 17.6988 30.1235 17.6988C29.119 17.6988 29.1193 18.3878 28.1147 18.3878C27.1102 18.3878 27.1102 17.6988 26.1054 17.6988C25.1006 17.6988 25.1004 18.3878 24.0953 18.3878C23.0903 18.3878 23.0908 17.6988 22.086 17.6988C21.0812 17.6988 21.0807 18.3878 20.0754 18.3878C19.0701 18.3878 19.0699 17.6988 18.0646 17.6988V16.3208C19.0699 16.3208 19.0699 17.0098 20.0754 17.0098C21.081 17.0098 21.0807 16.3208 22.086 16.3208C23.0913 16.3208 23.0908 17.0098 24.0953 17.0098C25.0999 17.0098 25.1004 16.3208 26.1054 16.3208C27.1105 16.3208 27.1102 17.0098 28.1147 17.0098C29.1193 17.0098 29.1193 16.3208 30.1235 16.3208C31.1278 16.3208 31.1281 17.0098 32.1323 17.0098C33.1366 17.0098 33.1368 16.3208 34.1411 16.3208V17.6988Z" fill="#03A7CB"/>
<rect x="10.0688" y="2.2251" width="7.80861" height="3.21531" fill="#95BA95"/>
<path d="M2.37509 7.60627L2.26025 10.5506H6.68131L6.73872 10.5505C6.34937 5.10065 9.03537 5.67481 10.9875 5.67481V2.00021C3.30631 1.5409 2.37509 4.92379 2.37509 7.60627Z" fill="#147614"/>
<rect x="1.45654" y="13.8232" width="5.97129" height="8.695" fill="#95BA95"/>
<path d="M1.22656 11.1533V13.8944H7.58082V11.1533H1.22656Z" fill="#147614"/>
<path d="M6.68137 9.90771H2.26032L1.24219 11.1536H7.56823L6.68137 9.90771Z" fill="#147614"/>
<path d="M18.981 2.27078V5.40369C18.981 5.48986 18.9111 5.55972 18.8249 5.55972H17.759C17.6728 5.55972 17.603 5.48986 17.603 5.40369V2.27078C17.603 2.18461 17.6728 2.11475 17.759 2.11475H18.8249C18.9111 2.11475 18.981 2.18461 18.981 2.27078Z" fill="#147614"/>
<rect x="0.296387" y="22.5" width="35.5" height="1" rx="0.5" fill="#919296"/>
</svg>
