<svg width="16" height="16" viewBox="0 0 16 16" fill="none" xmlns="http://www.w3.org/2000/svg">
<path d="M11.9452 13.3795H8.99102C9.48727 12.9364 9.95527 12.4626 10.3922 11.961C12.0318 10.0753 12.9008 8.0876 12.9008 6.21213C12.9008 4.81813 12.3471 3.48123 11.3614 2.49552C10.3757 1.50982 9.03875 0.956055 7.64475 0.956055C6.25075 0.956055 4.91385 1.50982 3.92814 2.49552C2.94244 3.48123 2.38867 4.81813 2.38867 6.21213C2.38867 8.0876 3.25533 10.0753 4.89725 11.961C5.33423 12.4626 5.80222 12.9364 6.29848 13.3795H3.34432C3.2176 13.3795 3.09606 13.4299 3.00645 13.5195C2.91684 13.6091 2.8665 13.7306 2.8665 13.8573C2.8665 13.9841 2.91684 14.1056 3.00645 14.1952C3.09606 14.2848 3.2176 14.3352 3.34432 14.3352H11.9452C12.0719 14.3352 12.1934 14.2848 12.283 14.1952C12.3727 14.1056 12.423 13.9841 12.423 13.8573C12.423 13.7306 12.3727 13.6091 12.283 13.5195C12.1934 13.4299 12.0719 13.3795 11.9452 13.3795ZM3.34432 6.21213C3.34432 5.07159 3.7974 3.97776 4.60389 3.17127C5.41037 2.36478 6.5042 1.91171 7.64475 1.91171C8.78529 1.91171 9.87912 2.36478 10.6856 3.17127C11.4921 3.97776 11.9452 5.07159 11.9452 6.21213C11.9452 9.63037 8.63206 12.4836 7.64475 13.2601C6.65744 12.4836 3.34432 9.63037 3.34432 6.21213ZM10.0339 6.21213C10.0339 5.73961 9.89376 5.27769 9.63124 4.8848C9.36871 4.49191 8.99558 4.18569 8.55903 4.00487C8.12247 3.82404 7.6421 3.77673 7.17865 3.86891C6.71521 3.9611 6.28951 4.18864 5.95538 4.52276C5.62126 4.85689 5.39371 5.28259 5.30153 5.74604C5.20934 6.20948 5.25666 6.68986 5.43748 7.12641C5.61831 7.56297 5.92453 7.9361 6.31742 8.19862C6.71031 8.46114 7.17222 8.60126 7.64475 8.60126C8.27838 8.60126 8.88607 8.34955 9.33412 7.9015C9.78216 7.45345 10.0339 6.84577 10.0339 6.21213ZM6.21127 6.21213C6.21127 5.92862 6.29535 5.65147 6.45286 5.41574C6.61037 5.18 6.83425 4.99627 7.09618 4.88777C7.35812 4.77928 7.64634 4.75089 7.92441 4.8062C8.20247 4.86151 8.45789 4.99804 8.65837 5.19851C8.85884 5.39899 8.99537 5.65441 9.05068 5.93248C9.10599 6.21054 9.0776 6.49877 8.96911 6.7607C8.86061 7.02263 8.67688 7.24651 8.44114 7.40402C8.20541 7.56154 7.92826 7.64561 7.64475 7.64561C7.26457 7.64561 6.89996 7.49458 6.63113 7.22575C6.3623 6.95692 6.21127 6.59231 6.21127 6.21213Z" fill="#2B2B2B"/>
</svg>
