<svg width="18" height="18" viewBox="0 0 18 18" fill="none" xmlns="http://www.w3.org/2000/svg">
<path d="M2.94446 9.00362C2.94446 6.46409 4.51642 4.2851 6.73823 3.38776L7.87192 1.1106C4.00721 1.65963 1.02539 4.98964 1.02539 9.00362C1.02539 12.6556 3.49362 15.7417 6.84936 16.682L7.06741 14.7417C4.67319 13.9339 2.94446 11.6669 2.94446 9.00362Z" fill="#45A845"/>
<path d="M16.9715 9.00445C16.9715 5.35323 14.5043 2.26773 11.1497 1.32666L10.9268 3.26552C13.3224 4.07255 15.0524 6.34024 15.0524 9.00445C15.0524 11.5292 13.4987 13.6975 11.2974 14.6045L10.1323 16.8964C13.9934 16.3442 16.9715 13.0159 16.9715 9.00445Z" fill="#45A845"/>
<path d="M13.562 8.03702C13.6376 7.88835 13.6305 7.72505 13.5432 7.58292C13.456 7.44072 13.3012 7.38405 13.1343 7.38405H9.48683L10.272 0.55773C10.2988 0.326302 10.1553 0.0865382 9.93187 0.0202102C9.88576 0.00653684 9.83904 0 9.79292 0C9.61577 0 9.44833 0.100811 9.36587 0.266391L4.43307 10.1782C4.35907 10.3268 4.36722 10.5248 4.45466 10.6661C4.54216 10.8073 4.6964 10.9223 4.86258 10.9223H8.46199L7.7241 17.4917C7.69831 17.7223 7.84111 17.9162 8.06336 17.9826C8.109 17.9963 8.15523 18 8.20087 18C8.37767 18 8.54511 17.9018 8.62865 17.7374L13.562 8.03702Z" fill="#45A845"/>
</svg>
