<svg width="28" height="31" viewBox="0 0 28 31" fill="none" xmlns="http://www.w3.org/2000/svg">
<rect x="1" y="6.43225" width="22.9356" height="22.9356" rx="11.4678" fill="white"/>
<rect x="0.5" y="5.93225" width="23.9356" height="23.9356" rx="11.9678" stroke="black" stroke-opacity="0.1"/>
<path d="M15.2837 24.6581C15.2837 24.8074 15.2244 24.9507 15.1188 25.0563C15.0132 25.1619 14.8699 25.2212 14.7206 25.2212H10.216C10.0666 25.2212 9.92343 25.1619 9.81783 25.0563C9.71223 24.9507 9.65291 24.8074 9.65291 24.6581C9.65291 24.5088 9.71223 24.3655 9.81783 24.2599C9.92343 24.1543 10.0666 24.095 10.216 24.095H14.7206C14.8699 24.095 15.0132 24.1543 15.1188 24.2599C15.2244 24.3655 15.2837 24.5088 15.2837 24.6581ZM19.0739 22.4058C18.9762 22.5779 18.8344 22.7208 18.663 22.8198C18.4916 22.9188 18.297 22.9702 18.0991 22.9689H6.83753C6.63956 22.9686 6.44516 22.9162 6.27392 22.8168C6.10269 22.7175 5.96067 22.5747 5.86217 22.403C5.76367 22.2313 5.71219 22.0366 5.7129 21.8387C5.71361 21.6407 5.76649 21.4464 5.86622 21.2754C6.25685 20.6025 6.83753 18.6993 6.83753 16.2119C6.83753 14.7186 7.43077 13.2864 8.48674 12.2304C9.54271 11.1744 10.9749 10.5812 12.4683 10.5812C13.9617 10.5812 15.3939 11.1744 16.4499 12.2304C17.5058 13.2864 18.0991 14.7186 18.0991 16.2119C18.0991 18.6986 18.6804 20.6025 19.0711 21.2754C19.1718 21.4467 19.2251 21.6416 19.2254 21.8403C19.2258 22.039 19.1733 22.2342 19.0732 22.4058H19.0739ZM18.0991 21.8427C17.555 20.9087 16.9729 18.7493 16.9729 16.2119C16.9729 15.0172 16.4983 13.8715 15.6535 13.0267C14.8088 12.1819 13.663 11.7073 12.4683 11.7073C11.2736 11.7073 10.1278 12.1819 9.28305 13.0267C8.43827 13.8715 7.96368 15.0172 7.96368 16.2119C7.96368 18.75 7.38089 20.9094 6.83753 21.8427H18.0991Z" fill="#121212"/>
<rect x="12.2065" width="15.2" height="15.8" rx="7.6" fill="#27AE60"/>
<path d="M19.5202 11.4V4.82562L18.1538 5.17282V4.33282L19.9346 3.56002H20.6626V11.4H19.5202Z" fill="white"/>
</svg>
