<svg width="102" height="28" viewBox="0 0 102 28" fill="none" xmlns="http://www.w3.org/2000/svg">
<path d="M93.0963 12.3107C93.6293 11.6712 94.6792 9.78457 94.6152 7.35437C94.5513 4.92417 93.1496 3.73039 92.4568 3.43727C93.0431 3.99686 94.2155 5.38783 94.2155 6.47502C93.576 6.6882 92.0571 6.74682 91.0978 5.27591C90.1385 3.805 90.1119 2.21151 90.2185 1.59863C91.231 1.65193 93.4798 2.12624 94.3752 3.59715C95.2633 5.05625 95.1236 6.68841 94.9392 7.33877C95.211 6.39986 96.0937 4.44205 97.4929 3.99686C98.8998 3.54919 100.744 3.97021 101.49 4.23668C101.117 5.06273 100.083 6.84275 98.9318 7.35437C97.7807 7.86599 96.3737 7.40767 95.8141 7.11455C96.2405 6.50167 97.4609 5.22795 98.9318 5.03609C97.9459 4.9295 95.7821 5.40382 95.0147 8.15378C94.8868 9.04912 94.8548 12.5772 94.8548 14.2293L92.4566 13.4299L93.0963 12.3107Z" fill="#8ABD44"/>
<path d="M5.8092 3.60886C5.8092 4.20628 5.59899 4.71519 5.17859 5.13559C4.75819 5.556 4.24927 5.7662 3.65186 5.7662C3.05444 5.7662 2.54553 5.556 2.12513 5.13559C1.70472 4.71519 1.49452 4.20628 1.49452 3.60886C1.49452 3.01144 1.70472 2.50253 2.12513 2.08213C2.54553 1.66172 3.05444 1.45152 3.65186 1.45152C4.24927 1.45152 4.75819 1.66172 5.17859 2.08213C5.59899 2.50253 5.8092 3.01144 5.8092 3.60886ZM5.17859 9.21794V25.481H2.12513V9.21794H5.17859Z" fill="#004E7E"/>
<path d="M12.8779 25V1.23608H20.1465C23.7753 1.23608 26.6849 2.33135 28.8754 4.52188C31.0881 6.7124 32.1944 9.57779 32.1944 13.118C32.1944 16.6804 31.0881 19.5569 28.8754 21.7474C26.6849 23.9158 23.7753 25 20.1465 25H12.8779ZM15.9314 4.15679V22.0793H20.1465C22.9123 22.0793 25.0918 21.2938 26.6849 19.7228C28.278 18.1297 29.0746 15.9281 29.0746 13.118C29.0746 10.3301 28.278 8.13957 26.6849 6.54645C25.0918 4.95334 22.9123 4.15679 20.1465 4.15679H15.9314ZM35.2946 1.23608H38.348V8.73698L38.2153 10.9939H38.348C38.8127 10.1973 39.5207 9.53354 40.4722 9.0025C41.4457 8.47146 42.4525 8.20595 43.4925 8.20595C45.4838 8.20595 47.0106 8.78124 48.0727 9.93182C49.1569 11.0603 49.699 12.6755 49.699 14.7775V25H46.6455V15.3749C46.6455 12.4542 45.3511 10.9939 42.7623 10.9939C41.5232 10.9939 40.4722 11.5139 39.6092 12.5538C38.7684 13.5716 38.348 14.7665 38.348 16.1383V25H35.2946V1.23608ZM55.3449 20.0215C55.3449 20.8181 55.6768 21.4819 56.3405 22.0129C57.0265 22.544 57.823 22.8095 58.7302 22.8095C60.0136 22.8095 61.1531 22.3338 62.1488 21.3823C63.1666 20.4309 63.6755 19.3135 63.6755 18.0301C62.7241 17.2778 61.3965 16.9017 59.6927 16.9017C58.4536 16.9017 57.4137 17.2004 56.5729 17.7978C55.7542 18.3952 55.3449 19.1365 55.3449 20.0215ZM59.2944 8.20595C61.5514 8.20595 63.3325 8.81443 64.638 10.0314C65.9435 11.2262 66.5962 12.8746 66.5962 14.9767V25H63.6755V22.7431H63.5427C62.2815 24.6017 60.5999 25.531 58.4979 25.531C56.7056 25.531 55.201 25 53.9841 23.9379C52.7892 22.8759 52.1918 21.5483 52.1918 19.9551C52.1918 18.2735 52.8224 16.9349 54.0836 15.9392C55.367 14.9435 57.0707 14.4456 59.1949 14.4456C61.0093 14.4456 62.5028 14.7775 63.6755 15.4413V14.7443C63.6755 13.6823 63.2551 12.7861 62.4143 12.056C61.5735 11.3037 60.5888 10.9275 59.4604 10.9275C57.7566 10.9275 56.4069 11.6466 55.4112 13.0849L52.7229 11.3922C54.2053 9.26802 56.3959 8.20595 59.2944 8.20595ZM73.0936 25H70.0402V8.73698H72.9609V11.3922H73.0936C73.4034 10.5292 74.034 9.79906 74.9854 9.20164C75.959 8.5821 76.9105 8.27233 77.8398 8.27233C78.7248 8.27233 79.4771 8.40509 80.0967 8.6706L79.1674 11.6245C78.7912 11.4696 78.1938 11.3922 77.3751 11.3922C76.2245 11.3922 75.2178 11.8568 74.3548 12.7861C73.514 13.7155 73.0936 14.7997 73.0936 16.0387V25Z" fill="#004E7E"/>
<path d="M83.6729 20.0215C83.6729 20.8181 84.0048 21.4819 84.6686 22.0129C85.3545 22.544 86.1511 22.8095 87.0582 22.8095C88.3416 22.8095 89.4811 22.3338 90.4768 21.3823C91.4946 20.4309 92.0035 19.3135 92.0035 18.0301C91.0521 17.2778 89.7245 16.9017 88.0208 16.9017C86.7817 16.9017 85.7417 17.2004 84.9009 17.7978C84.0822 18.3952 83.6729 19.1365 83.6729 20.0215ZM87.6225 8.20595C89.8794 8.20595 91.6606 8.81443 92.966 10.0314C94.2715 11.2262 94.9242 12.8746 94.9242 14.9767V25H92.0035V22.7431H91.8708C90.6096 24.6017 88.9279 25.531 86.8259 25.531C85.0337 25.531 83.5291 25 82.3121 23.9379C81.1173 22.8759 80.5199 21.5483 80.5199 19.9551C80.5199 18.2735 81.1505 16.9349 82.4117 15.9392C83.695 14.9435 85.3988 14.4456 87.5229 14.4456C89.3373 14.4456 90.8308 14.7775 92.0035 15.4413V14.7443C92.0035 13.6823 91.5831 12.7861 90.7423 12.056C89.9015 11.3037 88.9169 10.9275 87.7884 10.9275C86.0847 10.9275 84.735 11.6466 83.7393 13.0849L81.0509 11.3922C82.5334 9.26802 84.7239 8.20595 87.6225 8.20595Z" fill="#8ABD44"/>
</svg>
