<svg width="20" height="20" viewBox="0 0 20 20" fill="none" xmlns="http://www.w3.org/2000/svg">
<path d="M16.6637 8.33184C16.6637 12.4918 12.0488 16.8243 10.4991 18.1624C10.3547 18.2709 10.179 18.3296 9.99835 18.3296C9.81772 18.3296 9.64198 18.2709 9.49761 18.1624C7.94792 16.8243 3.33301 12.4918 3.33301 8.33184C3.33301 6.56409 4.03525 4.86873 5.28524 3.61874C6.53523 2.36874 8.23059 1.6665 9.99835 1.6665C11.7661 1.6665 13.4615 2.36874 14.7115 3.61874C15.9614 4.86873 16.6637 6.56409 16.6637 8.33184Z" stroke="#99A1AF" stroke-width="1.66633" stroke-linecap="round" stroke-linejoin="round"/>
<path d="M9.99755 10.831C11.378 10.831 12.4971 9.71197 12.4971 8.33153C12.4971 6.9511 11.378 5.83203 9.99755 5.83203C8.61711 5.83203 7.49805 6.9511 7.49805 8.33153C7.49805 9.71197 8.61711 10.831 9.99755 10.831Z" stroke="#99A1AF" stroke-width="1.66633" stroke-linecap="round" stroke-linejoin="round"/>
</svg>
