<svg width="19" height="19" viewBox="0 0 19 19" fill="none" xmlns="http://www.w3.org/2000/svg">
<path d="M17.0885 10.8385C16.8309 10.8396 16.5799 10.9202 16.3699 11.0694C16.1599 11.2185 16.001 11.429 15.9152 11.6718H15.0052V6.67184H15.9152C16.0135 6.94985 16.2069 7.18416 16.4612 7.33336C16.7156 7.48256 17.0144 7.53704 17.3051 7.48718C17.5957 7.43731 17.8593 7.28632 18.0494 7.06087C18.2395 6.83542 18.3437 6.55005 18.3437 6.25518C18.3437 5.96031 18.2395 5.67493 18.0494 5.44949C17.8593 5.22404 17.5957 5.07304 17.3051 5.02318C17.0144 4.97332 16.7156 5.0278 16.4612 5.177C16.2069 5.3262 16.0135 5.56051 15.9152 5.83851H15.0052V5.42184C15.0045 4.86951 14.7848 4.33999 14.3943 3.94944C14.0037 3.55888 13.4742 3.33917 12.9218 3.33851H12.5052V2.42851C12.7832 2.33022 13.0175 2.13682 13.1667 1.88248C13.3159 1.62814 13.3704 1.32925 13.3205 1.03862C13.2706 0.747999 13.1196 0.48436 12.8942 0.294301C12.6688 0.104242 12.3834 0 12.0885 0C11.7936 0 11.5083 0.104242 11.2828 0.294301C11.0574 0.48436 10.9064 0.747999 10.8565 1.03862C10.8067 1.32925 10.8611 1.62814 11.0103 1.88248C11.1595 2.13682 11.3938 2.33022 11.6718 2.42851V3.33851H6.67184V2.42851C6.94985 2.33022 7.18416 2.13682 7.33336 1.88248C7.48256 1.62814 7.53704 1.32925 7.48718 1.03862C7.43731 0.747999 7.28632 0.48436 7.06087 0.294301C6.83542 0.104242 6.55005 0 6.25518 0C5.96031 0 5.67493 0.104242 5.44949 0.294301C5.22404 0.48436 5.07304 0.747999 5.02318 1.03862C4.97332 1.32925 5.0278 1.62814 5.177 1.88248C5.3262 2.13682 5.56051 2.33022 5.83851 2.42851V3.33851H5.42184C4.86951 3.33917 4.33999 3.55888 3.94944 3.94944C3.55888 4.33999 3.33917 4.86951 3.33851 5.42184V5.83851H2.42851C2.33022 5.56051 2.13682 5.3262 1.88248 5.177C1.62814 5.0278 1.32925 4.97332 1.03862 5.02318C0.747999 5.07304 0.48436 5.22404 0.294301 5.44949C0.104242 5.67493 0 5.96031 0 6.25518C0 6.55005 0.104242 6.83542 0.294301 7.06087C0.48436 7.28632 0.747999 7.43731 1.03862 7.48718C1.32925 7.53704 1.62814 7.48256 1.88248 7.33336C2.13682 7.18416 2.33022 6.94985 2.42851 6.67184H3.33851V11.6718H2.42851C2.33022 11.3938 2.13682 11.1595 1.88248 11.0103C1.62814 10.8611 1.32925 10.8067 1.03862 10.8565C0.747999 10.9064 0.48436 11.0574 0.294301 11.2828C0.104242 11.5083 0 11.7936 0 12.0885C0 12.3834 0.104242 12.6688 0.294301 12.8942C0.48436 13.1196 0.747999 13.2706 1.03862 13.3205C1.32925 13.3704 1.62814 13.3159 1.88248 13.1667C2.13682 13.0175 2.33022 12.7832 2.42851 12.5052H3.33851V12.9218C3.33917 13.4742 3.55888 14.0037 3.94944 14.3943C4.33999 14.7848 4.86951 15.0045 5.42184 15.0052H5.83851V15.9152C5.56051 16.0135 5.3262 16.2069 5.177 16.4612C5.0278 16.7156 4.97332 17.0144 5.02318 17.3051C5.07304 17.5957 5.22404 17.8593 5.44949 18.0494C5.67493 18.2395 5.96031 18.3437 6.25518 18.3437C6.55005 18.3437 6.83542 18.2395 7.06087 18.0494C7.28632 17.8593 7.43731 17.5957 7.48718 17.3051C7.53704 17.0144 7.48256 16.7156 7.33336 16.4612C7.18416 16.2069 6.94985 16.0135 6.67184 15.9152V15.0052H11.6718V15.9152C11.3938 16.0135 11.1595 16.2069 11.0103 16.4612C10.8611 16.7156 10.8067 17.0144 10.8565 17.3051C10.9064 17.5957 11.0574 17.8593 11.2828 18.0494C11.5083 18.2395 11.7936 18.3437 12.0885 18.3437C12.3834 18.3437 12.6688 18.2395 12.8942 18.0494C13.1196 17.8593 13.2706 17.5957 13.3205 17.3051C13.3704 17.0144 13.3159 16.7156 13.1667 16.4612C13.0175 16.2069 12.7832 16.0135 12.5052 15.9152V15.0052H12.9218C13.4742 15.0045 14.0037 14.7848 14.3943 14.3943C14.7848 14.0037 15.0045 13.4742 15.0052 12.9218V12.5052H15.9152C15.9919 12.7207 16.1265 12.9109 16.304 13.0551C16.4816 13.1993 16.6954 13.292 16.922 13.3229C17.1487 13.3538 17.3795 13.3218 17.5892 13.2305C17.7989 13.1391 17.9795 12.9918 18.1112 12.8048C18.2428 12.6177 18.3206 12.3981 18.3359 12.1699C18.3512 11.9416 18.3034 11.7136 18.1979 11.5106C18.0923 11.3077 17.933 11.1376 17.7374 11.0191C17.5417 10.9006 17.3173 10.8381 17.0885 10.8385ZM17.0885 5.83851C17.1709 5.83851 17.2515 5.86295 17.32 5.90873C17.3885 5.95452 17.4419 6.01959 17.4735 6.09573C17.505 6.17186 17.5133 6.25564 17.4972 6.33647C17.4811 6.41729 17.4414 6.49153 17.3831 6.54981C17.3249 6.60808 17.2506 6.64776 17.1698 6.66384C17.089 6.67992 17.0052 6.67166 16.9291 6.64013C16.8529 6.60859 16.7879 6.55519 16.7421 6.48667C16.6963 6.41815 16.6718 6.33759 16.6718 6.25518C16.6718 6.14467 16.7157 6.03869 16.7939 5.96055C16.872 5.88241 16.978 5.83851 17.0885 5.83851ZM12.0885 0.838511C12.1709 0.838511 12.2515 0.862948 12.32 0.908732C12.3885 0.954516 12.4419 1.01959 12.4735 1.09573C12.505 1.17186 12.5132 1.25564 12.4972 1.33647C12.4811 1.41729 12.4414 1.49153 12.3831 1.54981C12.3249 1.60808 12.2506 1.64776 12.1698 1.66384C12.089 1.67992 12.0052 1.67166 11.9291 1.64013C11.8529 1.60859 11.7878 1.55519 11.7421 1.48667C11.6963 1.41815 11.6718 1.33759 11.6718 1.25518C11.6718 1.14467 11.7157 1.03869 11.7939 0.96055C11.872 0.88241 11.978 0.838511 12.0885 0.838511ZM6.25518 0.838511C6.33759 0.838511 6.41815 0.862948 6.48667 0.908732C6.55519 0.954516 6.60859 1.01959 6.64013 1.09573C6.67166 1.17186 6.67992 1.25564 6.66384 1.33647C6.64776 1.41729 6.60808 1.49153 6.54981 1.54981C6.49153 1.60808 6.41729 1.64776 6.33647 1.66384C6.25564 1.67992 6.17186 1.67166 6.09573 1.64013C6.01959 1.60859 5.95452 1.55519 5.90873 1.48667C5.86295 1.41815 5.83851 1.33759 5.83851 1.25518C5.83851 1.14467 5.88241 1.03869 5.96055 0.96055C6.03869 0.88241 6.14467 0.838511 6.25518 0.838511ZM1.25518 6.67184C1.17277 6.67184 1.09221 6.64741 1.02369 6.60162C0.95517 6.55584 0.901765 6.49077 0.870228 6.41463C0.838692 6.33849 0.83044 6.25472 0.846517 6.17389C0.862595 6.09306 0.902278 6.01882 0.96055 5.96055C1.01882 5.90228 1.09307 5.8626 1.17389 5.84652C1.25472 5.83044 1.33849 5.83869 1.41463 5.87023C1.49077 5.90176 1.55584 5.95517 1.60162 6.02369C1.64741 6.09221 1.67184 6.17277 1.67184 6.25518C1.67184 6.36569 1.62795 6.47167 1.54981 6.54981C1.47167 6.62795 1.36568 6.67184 1.25518 6.67184ZM1.25518 12.5052C1.17277 12.5052 1.09221 12.4807 1.02369 12.435C0.95517 12.3892 0.901765 12.3241 0.870228 12.248C0.838692 12.1718 0.83044 12.088 0.846517 12.0072C0.862595 11.9264 0.902278 11.8522 0.96055 11.7939C1.01882 11.7356 1.09307 11.6959 1.17389 11.6799C1.25472 11.6638 1.33849 11.672 1.41463 11.7036C1.49077 11.7351 1.55584 11.7885 1.60162 11.857C1.64741 11.9255 1.67184 12.0061 1.67184 12.0885C1.67184 12.199 1.62795 12.305 1.54981 12.3831C1.47167 12.4613 1.36568 12.5052 1.25518 12.5052ZM6.25518 17.5052C6.17277 17.5052 6.09221 17.4807 6.02369 17.435C5.95517 17.3892 5.90176 17.3241 5.87023 17.248C5.83869 17.1718 5.83044 17.0881 5.84652 17.0072C5.8626 16.9264 5.90228 16.8522 5.96055 16.7939C6.01882 16.7356 6.09306 16.6959 6.17389 16.6799C6.25472 16.6638 6.33849 16.672 6.41463 16.7036C6.49077 16.7351 6.55584 16.7885 6.60162 16.857C6.64741 16.9255 6.67184 17.0061 6.67184 17.0885C6.67184 17.199 6.62795 17.305 6.54981 17.3831C6.47167 17.4613 6.36569 17.5052 6.25518 17.5052ZM12.0885 17.5052C12.0061 17.5052 11.9255 17.4807 11.857 17.435C11.7885 17.3892 11.7351 17.3241 11.7036 17.248C11.672 17.1718 11.6638 17.0881 11.6799 17.0072C11.6959 16.9264 11.7356 16.8522 11.7939 16.7939C11.8522 16.7356 11.9264 16.6959 12.0072 16.6799C12.088 16.6638 12.1718 16.672 12.248 16.7036C12.3241 16.7351 12.3892 16.7885 12.435 16.857C12.4807 16.9255 12.5052 17.0061 12.5052 17.0885C12.5052 17.199 12.4613 17.305 12.3831 17.3831C12.305 17.4613 12.199 17.5052 12.0885 17.5052ZM14.1718 12.9218C14.1718 13.2534 14.0401 13.5713 13.8057 13.8057C13.5713 14.0401 13.2534 14.1718 12.9218 14.1718H5.42184C5.09032 14.1718 4.77238 14.0401 4.53796 13.8057C4.30354 13.5713 4.17184 13.2534 4.17184 12.9218V5.42184C4.17184 5.09032 4.30354 4.77238 4.53796 4.53796C4.77238 4.30354 5.09032 4.17184 5.42184 4.17184H12.9218C13.2534 4.17184 13.5713 4.30354 13.8057 4.53796C14.0401 4.77238 14.1718 5.09032 14.1718 5.42184V12.9218ZM17.0885 12.5052C17.0061 12.5052 16.9255 12.4807 16.857 12.435C16.7885 12.3892 16.7351 12.3241 16.7036 12.248C16.672 12.1718 16.6638 12.088 16.6799 12.0072C16.6959 11.9264 16.7356 11.8522 16.7939 11.7939C16.8522 11.7356 16.9264 11.6959 17.0072 11.6799C17.0881 11.6638 17.1718 11.672 17.248 11.7036C17.3241 11.7351 17.3892 11.7885 17.435 11.857C17.4807 11.9255 17.5052 12.0061 17.5052 12.0885C17.5052 12.199 17.4613 12.305 17.3831 12.3831C17.305 12.4613 17.199 12.5052 17.0885 12.5052Z" fill="#004E7E"/>
</svg>
