<svg width="20" height="20" viewBox="0 0 20 20" fill="none" xmlns="http://www.w3.org/2000/svg">
<g clip-path="url(#clip0_16560_35799)">
<path d="M8.78127 9.93019C8.70537 10.0088 8.66337 10.114 8.66432 10.2233C8.66527 10.3325 8.70909 10.437 8.78635 10.5143C8.8636 10.5915 8.9681 10.6354 9.07735 10.6363C9.1866 10.6372 9.29185 10.5953 9.37044 10.5194C9.53758 10.3527 9.76399 10.2591 10 10.2591C10.2361 10.2591 10.4625 10.3527 10.6296 10.5194C10.7082 10.5953 10.8134 10.6372 10.9227 10.6363C11.0319 10.6354 11.1364 10.5915 11.2137 10.5143C11.2909 10.437 11.3348 10.3325 11.3357 10.2233C11.3367 10.114 11.2947 10.0088 11.2188 9.93019C10.8954 9.6072 10.4571 9.42578 10 9.42578C9.54298 9.42578 9.10463 9.6072 8.78127 9.93019Z" fill="#004E7E"/>
<path d="M10.0001 7.85743C9.56769 7.85628 9.13933 7.94091 8.73981 8.10641C8.3403 8.27191 7.97757 8.51499 7.67263 8.8216C7.59673 8.90018 7.55473 9.00544 7.55568 9.11468C7.55663 9.22393 7.60045 9.32844 7.6777 9.40569C7.75496 9.48294 7.85946 9.52677 7.96871 9.52771C8.07796 9.52866 8.18321 9.48667 8.26179 9.41077C8.49007 9.18248 8.76108 9.00139 9.05935 8.87785C9.35761 8.7543 9.67729 8.69071 10.0001 8.69071C10.323 8.69071 10.6426 8.7543 10.9409 8.87785C11.2392 9.00139 11.5102 9.18248 11.7385 9.41077C11.817 9.48667 11.9223 9.52866 12.0315 9.52771C12.1408 9.52677 12.2453 9.48294 12.3226 9.40569C12.3998 9.32844 12.4436 9.22393 12.4446 9.11468C12.4455 9.00544 12.4035 8.90018 12.3276 8.8216C12.0227 8.51499 11.66 8.27191 11.2604 8.10641C10.8609 7.94091 10.4326 7.85628 10.0001 7.85743Z" fill="#004E7E"/>
<path d="M10.2958 11.371C10.2461 11.3234 10.1858 11.2884 10.1198 11.2688C10.0539 11.2493 9.98421 11.2457 9.91662 11.2585C9.84348 11.2747 9.77599 11.3101 9.72107 11.361C9.66616 11.412 9.6258 11.4766 9.60416 11.5483C9.58252 11.62 9.58037 11.6962 9.59794 11.769C9.61551 11.8419 9.65216 11.9087 9.70412 11.9626C9.78258 12.0411 9.88899 12.0852 9.99995 12.0852C10.1109 12.0852 10.2173 12.0411 10.2958 11.9626C10.3742 11.8842 10.4183 11.7778 10.4183 11.6668C10.4183 11.5558 10.3742 11.4494 10.2958 11.371Z" fill="#004E7E"/>
<path d="M17.9166 11.6666C17.659 11.6677 17.408 11.7483 17.198 11.8975C16.988 12.0467 16.8292 12.2571 16.7433 12.5H15.8333V7.49997H16.7433C16.8416 7.77798 17.035 8.01228 17.2893 8.16148C17.5437 8.31068 17.8426 8.36516 18.1332 8.3153C18.4238 8.26544 18.6875 8.11444 18.8775 7.88899C19.0676 7.66355 19.1718 7.37817 19.1718 7.0833C19.1718 6.78843 19.0676 6.50306 18.8775 6.27761C18.6875 6.05217 18.4238 5.90117 18.1332 5.85131C17.8426 5.80144 17.5437 5.85592 17.2893 6.00512C17.035 6.15432 16.8416 6.38863 16.7433 6.66664H15.8333V6.24997C15.8326 5.69764 15.6129 5.16812 15.2224 4.77756C14.8318 4.387 14.3023 4.1673 13.75 4.16664H13.3333V3.25664C13.6113 3.15835 13.8456 2.96494 13.9948 2.7106C14.144 2.45627 14.1985 2.15737 14.1486 1.86675C14.0988 1.57612 13.9478 1.31249 13.7223 1.12243C13.4969 0.932367 13.2115 0.828125 12.9166 0.828125C12.6218 0.828125 12.3364 0.932367 12.1109 1.12243C11.8855 1.31249 11.7345 1.57612 11.6846 1.86675C11.6348 2.15737 11.6893 2.45627 11.8385 2.7106C11.9877 2.96494 12.222 3.15835 12.5 3.25664V4.16664H7.49997V3.25664C7.77798 3.15835 8.01228 2.96494 8.16148 2.7106C8.31068 2.45627 8.36516 2.15737 8.3153 1.86675C8.26544 1.57612 8.11444 1.31249 7.88899 1.12243C7.66355 0.932367 7.37817 0.828125 7.0833 0.828125C6.78843 0.828125 6.50306 0.932367 6.27761 1.12243C6.05217 1.31249 5.90117 1.57612 5.85131 1.86675C5.80144 2.15737 5.85592 2.45627 6.00512 2.7106C6.15432 2.96494 6.38863 3.15835 6.66664 3.25664V4.16664H6.24997C5.69764 4.1673 5.16812 4.387 4.77756 4.77756C4.387 5.16812 4.1673 5.69764 4.16664 6.24997V6.66664H3.25664C3.15835 6.38863 2.96494 6.15432 2.7106 6.00512C2.45627 5.85592 2.15737 5.80144 1.86675 5.85131C1.57612 5.90117 1.31249 6.05217 1.12243 6.27761C0.932367 6.50306 0.828125 6.78843 0.828125 7.0833C0.828125 7.37817 0.932367 7.66355 1.12243 7.88899C1.31249 8.11444 1.57612 8.26544 1.86675 8.3153C2.15737 8.36516 2.45627 8.31068 2.7106 8.16148C2.96494 8.01228 3.15835 7.77798 3.25664 7.49997H4.16664V12.5H3.25664C3.15835 12.222 2.96494 11.9877 2.7106 11.8385C2.45627 11.6893 2.15737 11.6348 1.86675 11.6846C1.57612 11.7345 1.31249 11.8855 1.12243 12.1109C0.932367 12.3364 0.828125 12.6218 0.828125 12.9166C0.828125 13.2115 0.932367 13.4969 1.12243 13.7223C1.31249 13.9478 1.57612 14.0988 1.86675 14.1486C2.15737 14.1985 2.45627 14.144 2.7106 13.9948C2.96494 13.8456 3.15835 13.6113 3.25664 13.3333H4.16664V13.75C4.1673 14.3023 4.387 14.8318 4.77756 15.2224C5.16812 15.6129 5.69764 15.8326 6.24997 15.8333H6.66664V16.7433C6.38863 16.8416 6.15432 17.035 6.00512 17.2893C5.85592 17.5437 5.80144 17.8426 5.85131 18.1332C5.90117 18.4238 6.05217 18.6875 6.27761 18.8775C6.50306 19.0676 6.78843 19.1718 7.0833 19.1718C7.37817 19.1718 7.66355 19.0676 7.88899 18.8775C8.11444 18.6875 8.26544 18.4238 8.3153 18.1332C8.36516 17.8426 8.31068 17.5437 8.16148 17.2893C8.01228 17.035 7.77798 16.8416 7.49997 16.7433V15.8333H12.5V16.7433C12.222 16.8416 11.9877 17.035 11.8385 17.2893C11.6893 17.5437 11.6348 17.8426 11.6846 18.1332C11.7345 18.4238 11.8855 18.6875 12.1109 18.8775C12.3364 19.0676 12.6218 19.1718 12.9166 19.1718C13.2115 19.1718 13.4969 19.0676 13.7223 18.8775C13.9478 18.6875 14.0988 18.4238 14.1486 18.1332C14.1985 17.8426 14.144 17.5437 13.9948 17.2893C13.8456 17.035 13.6113 16.8416 13.3333 16.7433V15.8333H13.75C14.3023 15.8326 14.8318 15.6129 15.2224 15.2224C15.6129 14.8318 15.8326 14.3023 15.8333 13.75V13.3333H16.7433C16.8201 13.5488 16.9546 13.739 17.1321 13.8832C17.3097 14.0275 17.5235 14.1201 17.7502 14.151C17.9768 14.1819 18.2076 14.15 18.4173 14.0586C18.627 13.9672 18.8076 13.82 18.9393 13.6329C19.071 13.4459 19.1487 13.2262 19.164 12.998C19.1793 12.7697 19.1315 12.5417 19.026 12.3387C18.9204 12.1358 18.7611 11.9658 18.5655 11.8472C18.3699 11.7287 18.1454 11.6662 17.9166 11.6666ZM17.9166 6.66664C17.999 6.66664 18.0796 6.69107 18.1481 6.73686C18.2166 6.78264 18.2701 6.84772 18.3016 6.92385C18.3331 6.99999 18.3414 7.08377 18.3253 7.16459C18.3092 7.24542 18.2695 7.31966 18.2113 7.37793C18.153 7.4362 18.0788 7.47589 17.9979 7.49196C17.9171 7.50804 17.8333 7.49979 17.7572 7.46825C17.6811 7.43672 17.616 7.38331 17.5702 7.31479C17.5244 7.24627 17.5 7.16571 17.5 7.0833C17.5 6.9728 17.5439 6.86682 17.622 6.78868C17.7001 6.71054 17.8061 6.66664 17.9166 6.66664ZM12.9166 1.66664C12.999 1.66664 13.0796 1.69107 13.1481 1.73686C13.2166 1.78264 13.2701 1.84772 13.3016 1.92385C13.3331 1.99999 13.3414 2.08377 13.3253 2.16459C13.3092 2.24542 13.2695 2.31966 13.2113 2.37793C13.153 2.4362 13.0787 2.47589 12.9979 2.49196C12.9171 2.50804 12.8333 2.49979 12.7572 2.46825C12.681 2.43672 12.616 2.38331 12.5702 2.31479C12.5244 2.24627 12.5 2.16571 12.5 2.0833C12.5 1.9728 12.5439 1.86682 12.622 1.78868C12.7001 1.71054 12.8061 1.66664 12.9166 1.66664ZM7.0833 1.66664C7.16571 1.66664 7.24627 1.69107 7.31479 1.73686C7.38331 1.78264 7.43672 1.84772 7.46825 1.92385C7.49979 1.99999 7.50804 2.08377 7.49196 2.16459C7.47589 2.24542 7.4362 2.31966 7.37793 2.37793C7.31966 2.4362 7.24542 2.47589 7.16459 2.49196C7.08377 2.50804 6.99999 2.49979 6.92385 2.46825C6.84772 2.43672 6.78264 2.38331 6.73686 2.31479C6.69107 2.24627 6.66664 2.16571 6.66664 2.0833C6.66664 1.9728 6.71054 1.86682 6.78868 1.78868C6.86682 1.71054 6.9728 1.66664 7.0833 1.66664ZM2.0833 7.49997C2.00089 7.49997 1.92034 7.47553 1.85182 7.42975C1.78329 7.38397 1.72989 7.31889 1.69835 7.24275C1.66682 7.16662 1.65857 7.08284 1.67464 7.00202C1.69072 6.92119 1.7304 6.84695 1.78868 6.78868C1.84695 6.7304 1.92119 6.69072 2.00202 6.67464C2.08284 6.65857 2.16662 6.66682 2.24275 6.69835C2.31889 6.72989 2.38396 6.7833 2.42975 6.85182C2.47553 6.92034 2.49997 7.00089 2.49997 7.0833C2.49997 7.19381 2.45607 7.29979 2.37793 7.37793C2.29979 7.45607 2.19381 7.49997 2.0833 7.49997ZM2.0833 13.3333C2.00089 13.3333 1.92034 13.3089 1.85182 13.2631C1.78329 13.2173 1.72989 13.1522 1.69835 13.0761C1.66682 13 1.65857 12.9162 1.67464 12.8353C1.69072 12.7545 1.7304 12.6803 1.78868 12.622C1.84695 12.5637 1.92119 12.5241 2.00202 12.508C2.08284 12.4919 2.16662 12.5001 2.24275 12.5317C2.31889 12.5632 2.38396 12.6166 2.42975 12.6851C2.47553 12.7537 2.49997 12.8342 2.49997 12.9166C2.49997 13.0271 2.45607 13.1331 2.37793 13.2113C2.29979 13.2894 2.19381 13.3333 2.0833 13.3333ZM7.0833 18.3333C7.00089 18.3333 6.92034 18.3089 6.85182 18.2631C6.7833 18.2173 6.72989 18.1522 6.69835 18.0761C6.66682 18 6.65857 17.9162 6.67464 17.8354C6.69072 17.7545 6.7304 17.6803 6.78868 17.622C6.84695 17.5637 6.92119 17.5241 7.00202 17.508C7.08284 17.4919 7.16662 17.5002 7.24275 17.5317C7.31889 17.5632 7.38397 17.6166 7.42975 17.6852C7.47553 17.7537 7.49997 17.8342 7.49997 17.9166C7.49997 18.0271 7.45607 18.1331 7.37793 18.2113C7.29979 18.2894 7.19381 18.3333 7.0833 18.3333ZM12.9166 18.3333C12.8342 18.3333 12.7537 18.3089 12.6851 18.2631C12.6166 18.2173 12.5632 18.1522 12.5317 18.0761C12.5001 18 12.4919 17.9162 12.508 17.8354C12.5241 17.7545 12.5637 17.6803 12.622 17.622C12.6803 17.5637 12.7545 17.5241 12.8353 17.508C12.9162 17.4919 13 17.5002 13.0761 17.5317C13.1522 17.5632 13.2173 17.6166 13.2631 17.6852C13.3089 17.7537 13.3333 17.8342 13.3333 17.9166C13.3333 18.0271 13.2894 18.1331 13.2113 18.2113C13.1331 18.2894 13.0271 18.3333 12.9166 18.3333ZM15 13.75C15 14.0815 14.8683 14.3994 14.6339 14.6339C14.3994 14.8683 14.0815 15 13.75 15H6.24997C5.91845 15 5.60051 14.8683 5.36609 14.6339C5.13167 14.3994 4.99997 14.0815 4.99997 13.75V6.24997C4.99997 5.91845 5.13167 5.60051 5.36609 5.36609C5.60051 5.13167 5.91845 4.99997 6.24997 4.99997H13.75C14.0815 4.99997 14.3994 5.13167 14.6339 5.36609C14.8683 5.60051 15 5.91845 15 6.24997V13.75ZM17.9166 13.3333C17.8342 13.3333 17.7537 13.3089 17.6852 13.2631C17.6166 13.2173 17.5632 13.1522 17.5317 13.0761C17.5002 13 17.4919 12.9162 17.508 12.8353C17.5241 12.7545 17.5637 12.6803 17.622 12.622C17.6803 12.5637 17.7545 12.5241 17.8354 12.508C17.9162 12.4919 18 12.5001 18.0761 12.5317C18.1522 12.5632 18.2173 12.6166 18.2631 12.6851C18.3089 12.7537 18.3333 12.8342 18.3333 12.9166C18.3333 13.0271 18.2894 13.1331 18.2113 13.2113C18.1331 13.2894 18.0271 13.3333 17.9166 13.3333Z" fill="#004E7E"/>
</g>
<defs>
<clipPath id="clip0_16560_35799">
<rect width="20" height="20" fill="white"/>
</clipPath>
</defs>
</svg>
