<svg width="16" height="17" viewBox="0 0 16 17" fill="none" xmlns="http://www.w3.org/2000/svg">
<g id="high-voltage 1" clip-path="url(#clip0_3145_4710)">
<g id="Group">
<g id="Group_2">
<path id="Vector" d="M15.8262 14.2015L9.26106 2.32093C9.01562 1.87724 8.54816 1.60187 8.04166 1.60187H7.95831C7.45181 1.60187 6.98438 1.87727 6.73891 2.32127L0.173844 14.2015C0.0599063 14.4075 0 14.6402 0 14.8753C0 15.6435 0.625 16.2685 1.39322 16.2685H14.6067C15.375 16.2685 16 15.6435 16 14.8753C16 14.6402 15.9401 14.4075 15.8262 14.2015ZM10.5866 10.152L6.58659 14.8186C6.52084 14.8948 6.42775 14.9351 6.33334 14.9351C6.27409 14.9351 6.21419 14.9195 6.16081 14.887C6.0215 14.8023 5.96353 14.6295 6.02409 14.4781L7.1745 11.6018H5.66669C5.55797 11.6018 5.45641 11.5491 5.39391 11.4605C5.33206 11.372 5.31644 11.2584 5.35288 11.1565L7.01953 6.48984C7.06706 6.35702 7.19272 6.26849 7.33334 6.26849H9.66669C9.77738 6.26849 9.88087 6.32349 9.94272 6.41499C10.0046 6.50646 10.0169 6.62299 9.97594 6.72556L8.82553 9.60187H10.3333C10.4636 9.60187 10.582 9.67771 10.6361 9.79587C10.6908 9.91402 10.6712 10.0533 10.5866 10.152Z" fill="#4F4F4F"/>
</g>
</g>
</g>
<defs>
<clipPath id="clip0_3145_4710">
<rect width="16" height="16" fill="white" transform="translate(0 0.935181)"/>
</clipPath>
</defs>
</svg>
