<svg width="151" height="41" viewBox="0 0 151 41" fill="none" xmlns="http://www.w3.org/2000/svg">
<path d="M137.888 18.2336C138.677 17.2864 140.232 14.4921 140.137 10.8926C140.043 7.29321 137.967 5.52507 136.94 5.09093C137.809 5.91975 139.545 7.97995 139.545 9.59022C138.598 9.90596 136.348 9.99279 134.928 7.81418C133.507 5.63558 133.467 3.27543 133.625 2.36768C135.125 2.44661 138.456 3.14913 139.782 5.32773C141.097 7.48837 140.89 9.90521 140.617 10.8689C141.02 9.47801 142.327 6.57902 144.399 5.91975C146.483 5.25669 149.215 5.88028 150.32 6.27495C149.767 7.49844 148.236 10.1349 146.531 10.8926C144.826 11.6504 142.742 10.9716 141.913 10.5374C142.545 9.62969 144.352 7.74314 146.531 7.45898C145.07 7.30111 141.866 8.00363 140.729 12.0767C140.54 13.4028 140.492 18.6283 140.492 21.0752L136.94 19.8912L137.888 18.2336Z" fill="#8ABD44"/>
<path d="M8.60423 5.31709C8.60423 6.20194 8.29289 6.9557 7.67022 7.57837C7.04755 8.20104 6.29379 8.51238 5.40894 8.51238C4.52409 8.51238 3.77033 8.20104 3.14766 7.57837C2.52498 6.9557 2.21365 6.20194 2.21365 5.31709C2.21365 4.43224 2.52498 3.67848 3.14766 3.05581C3.77033 2.43314 4.52409 2.1218 5.40894 2.1218C6.29379 2.1218 7.04755 2.43314 7.67022 3.05581C8.29289 3.67848 8.60423 4.43224 8.60423 5.31709ZM7.67022 13.6248V37.7124H3.14766V13.6248H7.67022Z" fill="white"/>
<path d="M19.0741 37V1.80267H29.8398C35.2144 1.80267 39.524 3.42489 42.7684 6.66933C46.0456 9.91378 47.6843 14.1578 47.6843 19.4013C47.6843 24.6777 46.0456 28.938 42.7684 32.1825C39.524 35.3942 35.2144 37 29.8398 37H19.0741ZM23.5967 6.12859V32.6741H29.8398C33.9363 32.6741 37.1644 31.5107 39.524 29.1838C41.8836 26.8242 43.0634 23.5634 43.0634 19.4013C43.0634 15.272 41.8836 12.0276 39.524 9.66799C37.1644 7.30839 33.9363 6.12859 29.8398 6.12859H23.5967ZM52.2759 1.80267H56.7985V12.9124L56.6019 16.2552H56.7985C57.4867 15.0754 58.5354 14.0922 59.9446 13.3057C61.3866 12.5192 62.8777 12.1259 64.418 12.1259C67.3675 12.1259 69.6288 12.978 71.2019 14.6821C72.8077 16.3535 73.6106 18.7459 73.6106 21.8592V37H69.0881V22.7441C69.0881 18.4182 67.1709 16.2552 63.3366 16.2552C61.5013 16.2552 59.9446 17.0253 58.6665 18.5656C57.4212 20.0732 56.7985 21.8429 56.7985 23.8747V37H52.2759V1.80267ZM81.9729 29.6263C81.9729 30.8061 82.4645 31.7892 83.4477 32.5758C84.4636 33.3623 85.6434 33.7556 86.9871 33.7556C88.8879 33.7556 90.5756 33.051 92.0504 31.6417C93.5579 30.2325 94.3117 28.5775 94.3117 26.6768C92.9025 25.5625 90.9361 25.0054 88.4127 25.0054C86.5774 25.0054 85.0371 25.4478 83.7918 26.3327C82.5792 27.2175 81.9729 28.3154 81.9729 29.6263ZM87.8228 12.1259C91.1655 12.1259 93.8037 13.0271 95.7372 14.8296C97.6708 16.5993 98.6376 19.0408 98.6376 22.1542V37H94.3117V33.6572H94.115C92.247 36.4101 89.7563 37.7865 86.643 37.7865C83.9884 37.7865 81.7599 37 79.9574 35.4269C78.1877 33.8539 77.3029 31.8875 77.3029 29.5279C77.3029 27.0373 78.2369 25.0545 80.1049 23.5798C82.0057 22.105 84.5292 21.3677 87.6753 21.3677C90.3626 21.3677 92.5747 21.8592 94.3117 22.8424V21.8101C94.3117 20.237 93.689 18.9097 92.4436 17.8283C91.1983 16.714 89.7399 16.1569 88.0686 16.1569C85.5451 16.1569 83.546 17.222 82.0712 19.3522L78.0894 16.8451C80.2852 13.699 83.5296 12.1259 87.8228 12.1259ZM108.261 37H103.739V12.9124H108.064V16.8451H108.261C108.72 15.567 109.654 14.4855 111.063 13.6007C112.505 12.683 113.914 12.2242 115.291 12.2242C116.602 12.2242 117.716 12.4209 118.633 12.8141L117.257 17.1892C116.7 16.9598 115.815 16.8451 114.603 16.8451C112.898 16.8451 111.407 17.5333 110.129 18.9097C108.884 20.2862 108.261 21.892 108.261 23.7273V37ZM123.93 29.6263C123.93 30.8061 124.422 31.7892 125.405 32.5758C126.421 33.3623 127.601 33.7556 128.944 33.7556C130.845 33.7556 132.533 33.051 134.008 31.6417C135.515 30.2325 136.269 28.5775 136.269 26.6768C134.86 25.5625 132.893 25.0054 130.37 25.0054C128.535 25.0054 126.994 25.4478 125.749 26.3327C124.537 27.2175 123.93 28.3154 123.93 29.6263ZM129.78 12.1259C133.123 12.1259 135.761 13.0271 137.695 14.8296C139.628 16.5993 140.595 19.0408 140.595 22.1542V37H136.269V33.6572H136.072C134.204 36.4101 131.714 37.7865 128.6 37.7865C125.946 37.7865 123.717 37 121.915 35.4269C120.145 33.8539 119.26 31.8875 119.26 29.5279C119.26 27.0373 120.194 25.0545 122.062 23.5798C123.963 22.105 126.487 21.3677 129.633 21.3677C132.32 21.3677 134.532 21.8592 136.269 22.8424V21.8101C136.269 20.237 135.646 18.9097 134.401 17.8283C133.156 16.714 131.697 16.1569 130.026 16.1569C127.502 16.1569 125.503 17.222 124.029 19.3522L120.047 16.8451C122.243 13.699 125.487 12.1259 129.78 12.1259Z" fill="white"/>
</svg>
