<svg width="120" height="81" viewBox="0 0 120 81" fill="none" xmlns="http://www.w3.org/2000/svg">
<g clip-path="url(#clip0_9902_7510)">
<path d="M47.7366 71.0746L60.1332 64.8763V55.5789M72.5298 71.0749L60.1331 64.8765" stroke="#E1E4E5" stroke-width="3.2" stroke-miterlimit="10" stroke-linecap="round" stroke-linejoin="round"/>
<path d="M41.2283 56.3327H79.0069C84.8953 56.3327 87.9944 53.2335 87.9944 47.3451V9.84552H32.2097V47.3451C32.2408 53.2335 35.34 56.3327 41.2283 56.3327Z" fill="#CDCDCD" stroke="#CDCDCD" stroke-width="3.2" stroke-miterlimit="10" stroke-linecap="round" stroke-linejoin="round"/>
<path d="M29.1418 9.84552H91.1246" stroke="#CDCDCD" stroke-width="3.2" stroke-miterlimit="10" stroke-linecap="round" stroke-linejoin="round"/>
<path d="M47.5396 49.1266V44.1765M60.0696 49.1266V39.0717M72.5995 49.1266V33.9669M72.5995 19.1163L71.4738 20.4366C65.2333 27.7227 56.8637 32.8815 47.5396 35.2043" stroke="white" stroke-width="3.2" stroke-linecap="round"/>
<path d="M65.4836 19.1163H72.5994V26.2322" stroke="white" stroke-width="3.2" stroke-linecap="round" stroke-linejoin="round"/>
<path d="M99.8344 42.7969C97.2977 44.0551 93.9309 42.4373 93.9309 42.4373C93.9309 42.4373 94.679 38.7798 97.2172 37.5231C99.7538 36.2649 103.119 37.8811 103.119 37.8811C103.119 37.8811 102.371 41.5385 99.8344 42.7969Z" fill="url(#paint0_linear_9902_7510)"/>
<path d="M19.9548 44.3486C22.3246 45.769 25.7246 44.4559 25.7246 44.4559C25.7246 44.4559 25.2801 40.8406 22.9088 39.4219C20.5389 38.0015 17.1404 39.313 17.1404 39.313C17.1404 39.313 17.5849 42.9283 19.9548 44.3486Z" fill="url(#paint1_linear_9902_7510)"/>
<path d="M80.5251 66.8237C79.5711 66.8237 78.7978 66.0503 78.7978 65.0964C78.7978 64.1424 79.5711 63.369 80.5251 63.369C81.4791 63.369 82.2524 64.1424 82.2524 65.0964C82.2524 66.0503 81.4791 66.8237 80.5251 66.8237Z" fill="#E1E4E5"/>
<path d="M25.4493 63.7183C24.0713 63.7183 22.9542 62.6013 22.9542 61.2233C22.9542 59.8453 24.0713 58.7282 25.4493 58.7282C26.8273 58.7282 27.9443 59.8453 27.9443 61.2233C27.9443 62.6013 26.8273 63.7183 25.4493 63.7183Z" fill="#E1E4E5"/>
<path d="M96.4753 58.3494C95.4266 58.3494 94.5764 57.4993 94.5764 56.4505C94.5764 55.4018 95.4266 54.5516 96.4753 54.5516C97.5241 54.5516 98.3743 55.4018 98.3743 56.4505C98.3743 57.4993 97.5241 58.3494 96.4753 58.3494Z" fill="#E1E4E5"/>
<path d="M96.6874 19.1729C95.5214 19.1729 94.5762 18.2277 94.5762 17.0617C94.5762 15.8957 95.5214 14.9505 96.6874 14.9505C97.8534 14.9505 98.7986 15.8957 98.7986 17.0617C98.7986 18.2277 97.8534 19.1729 96.6874 19.1729Z" fill="#E1E4E5"/>
<path d="M19.7533 25.7545C20.0243 26.7659 19.4241 27.8054 18.4127 28.0764C17.4014 28.3474 16.3618 27.7472 16.0908 26.7359C15.8198 25.7245 16.42 24.6849 17.4314 24.4139C18.4427 24.1429 19.4823 24.7431 19.7533 25.7545Z" fill="#E1E4E5"/>
<path d="M26.218 17.9207C25.7822 17.9207 25.4289 17.5674 25.4289 17.1317C25.4289 16.6959 25.7822 16.3426 26.218 16.3426C26.6538 16.3426 27.0071 16.6959 27.0071 17.1317C27.0071 17.5674 26.6538 17.9207 26.218 17.9207Z" fill="#E1E4E5"/>
<path d="M39.4351 66.7825C38.3636 66.7825 37.495 66.0876 37.495 65.2304C37.495 64.3731 38.3636 63.6782 39.4351 63.6782C40.5066 63.6782 41.3752 64.3731 41.3752 65.2304C41.3752 66.0876 40.5066 66.7825 39.4351 66.7825Z" fill="#E1E4E5"/>
</g>
<defs>
<linearGradient id="paint0_linear_9902_7510" x1="90.0932" y1="46.7219" x2="111.016" y2="30.1721" gradientUnits="userSpaceOnUse">
<stop stop-color="white"/>
<stop offset="1" stop-color="#EEEEEE"/>
</linearGradient>
<linearGradient id="paint1_linear_9902_7510" x1="29.1254" y1="48.9206" x2="10.0568" y2="31.2033" gradientUnits="userSpaceOnUse">
<stop stop-color="white"/>
<stop offset="1" stop-color="#EEEEEE"/>
</linearGradient>
<clipPath id="clip0_9902_7510">
<rect width="120" height="80" fill="white" transform="translate(0 0.512207)"/>
</clipPath>
</defs>
</svg>
