<svg width="20" height="23" viewBox="0 0 20 23" fill="none" xmlns="http://www.w3.org/2000/svg">
<path d="M1.2002 18.601C1.2002 17.7173 1.91654 17.001 2.8002 17.001C3.68385 17.001 4.4002 17.7173 4.4002 18.601V19.401C4.4002 20.2846 3.68385 21.001 2.8002 21.001C1.91654 21.001 1.2002 20.2846 1.2002 19.401V18.601Z" fill="#BDBDBD"/>
<path d="M6 14.601C6 13.7173 6.71634 13.001 7.6 13.001C8.48366 13.001 9.2 13.7173 9.2 14.601V19.401C9.2 20.2846 8.48366 21.001 7.6 21.001C6.71634 21.001 6 20.2846 6 19.401V14.601Z" fill="#BDBDBD"/>
<path d="M10.8003 10.601C10.8003 9.71732 11.5166 9.00098 12.4003 9.00098C13.2839 9.00098 14.0003 9.71732 14.0003 10.601V19.401C14.0003 20.2846 13.2839 21.001 12.4003 21.001C11.5166 21.001 10.8003 20.2846 10.8003 19.401V10.601Z" fill="#BDBDBD"/>
<path d="M15.6001 6.60098C15.6001 5.71732 16.3164 5.00098 17.2001 5.00098C18.0838 5.00098 18.8001 5.71732 18.8001 6.60098V19.401C18.8001 20.2846 18.0838 21.001 17.2001 21.001C16.3164 21.001 15.6001 20.2846 15.6001 19.401V6.60098Z" fill="#BDBDBD"/>
<path d="M9.17745 12.5192C9.02077 12.6759 8.80826 12.7639 8.58668 12.7639C8.3651 12.7639 8.15259 12.6759 7.9959 12.5192L6.15013 10.4096L4.30435 12.5185C4.227 12.5971 4.13485 12.6597 4.03321 12.7025C3.93157 12.7453 3.82246 12.7676 3.71217 12.7681C3.60187 12.7685 3.49258 12.7471 3.3906 12.7051C3.28862 12.6631 3.19596 12.6013 3.11797 12.5234C3.03998 12.4454 2.9782 12.3527 2.9362 12.2507C2.89421 12.1487 2.87281 12.0394 2.87326 11.9292C2.87371 11.8189 2.89599 11.7098 2.93882 11.6081C2.98165 11.5065 3.04418 11.4143 3.1228 11.337L5.04308 9.14376L3.1221 6.94916C3.04348 6.87181 2.98095 6.77966 2.93813 6.67802C2.8953 6.57638 2.87301 6.46727 2.87257 6.35698C2.87212 6.24668 2.89351 6.1374 2.93551 6.03541C2.97751 5.93343 3.03928 5.84077 3.11727 5.76278C3.19526 5.68479 3.28792 5.62302 3.3899 5.58102C3.49189 5.53902 3.60118 5.51762 3.71147 5.51807C3.82176 5.51852 3.93087 5.5408 4.03251 5.58363C4.13415 5.62646 4.2263 5.68899 4.30365 5.76761L6.15013 7.87797L7.9959 5.76761C8.07326 5.68899 8.16541 5.62646 8.26705 5.58363C8.36868 5.5408 8.4778 5.51852 8.58809 5.51807C8.69838 5.51762 8.80767 5.53902 8.90965 5.58102C9.01164 5.62302 9.10429 5.68479 9.18228 5.76278C9.26027 5.84077 9.32205 5.93343 9.36405 6.03541C9.40605 6.1374 9.42744 6.24668 9.42699 6.35698C9.42654 6.46727 9.40426 6.57638 9.36143 6.67802C9.3186 6.77966 9.25607 6.87181 9.17745 6.94916L7.25718 9.14376L9.17745 11.337C9.25513 11.4146 9.31676 11.5067 9.35881 11.6081C9.40085 11.7096 9.4225 11.8183 9.4225 11.9281C9.4225 12.0379 9.40085 12.1466 9.35881 12.248C9.31676 12.3495 9.25513 12.4416 9.17745 12.5192Z" fill="#F24822"/>
</svg>
