<svg width="86" height="64" viewBox="0 0 86 64" fill="none" xmlns="http://www.w3.org/2000/svg">
<path d="M2.45996 56.3023V60.509H0V48.5682H4.65548C5.55067 48.5682 6.34154 48.7332 7.02082 49.0607C7.7001 49.3882 8.22411 49.8564 8.59044 50.4581C8.95676 51.0621 9.13872 51.7511 9.13872 52.5202C9.13872 53.6895 8.73843 54.6138 7.93785 55.2882C7.13727 55.9627 6.03102 56.3023 4.61424 56.3023H2.45996ZM2.45996 54.3081H4.65548C5.30564 54.3081 5.80298 54.1553 6.14504 53.8496C6.48711 53.5439 6.65692 53.1048 6.65692 52.5372C6.65692 51.9525 6.48468 51.4794 6.14019 51.1179C5.7957 50.7565 5.3202 50.5721 4.71128 50.5624H2.45996V54.3081ZM14.7573 60.6739C13.4546 60.6739 12.3968 60.2736 11.5793 59.4755C10.7617 58.6773 10.3541 57.6148 10.3541 56.2853V56.0548C10.3541 55.1645 10.524 54.3688 10.8684 53.6652C11.2129 52.9617 11.703 52.4207 12.3337 52.0422C12.9645 51.6614 13.685 51.4721 14.4929 51.4721C15.7083 51.4721 16.6617 51.8554 17.3604 52.6196C18.0567 53.3862 18.406 54.4682 18.406 55.8729V56.8409H12.7559C12.8335 57.4207 13.064 57.8865 13.4497 58.2358C13.8354 58.5852 14.3231 58.7623 14.9126 58.7623C15.8248 58.7623 16.5404 58.4323 17.0523 57.7676L18.2168 59.0728C17.8602 59.575 17.3822 59.968 16.7733 60.2494C16.1668 60.5332 15.4948 60.6739 14.7573 60.6739ZM14.4856 53.3911C14.015 53.3911 13.6341 53.5512 13.343 53.8666C13.0494 54.182 12.8626 54.6356 12.7801 55.2276H16.0771V55.0384C16.0674 54.5143 15.9242 54.1068 15.6501 53.8229C15.3784 53.5342 14.9878 53.3911 14.4856 53.3911ZM23.833 60.6739C22.5326 60.6739 21.4725 60.2736 20.6549 59.4755C19.8398 58.6773 19.4298 57.6148 19.4298 56.2853V56.0548C19.4298 55.1645 19.602 54.3688 19.9465 53.6652C20.2886 52.9617 20.7786 52.4207 21.4094 52.0422C22.0426 51.6614 22.7607 51.4721 23.5685 51.4721C24.7839 51.4721 25.7398 51.8554 26.436 52.6196C27.1323 53.3862 27.4816 54.4682 27.4816 55.8729V56.8409H21.8315C21.9091 57.4207 22.1396 57.8865 22.5253 58.2358C22.9111 58.5852 23.3987 58.7623 23.9882 58.7623C24.9028 58.7623 25.6161 58.4323 26.1279 57.7676L27.2924 59.0728C26.9358 59.575 26.4579 59.968 25.8514 60.2494C25.2425 60.5332 24.5705 60.6739 23.833 60.6739ZM23.5612 53.3911C23.0906 53.3911 22.7097 53.5512 22.4186 53.8666C22.1251 54.182 21.9383 54.6356 21.8558 55.2276H25.1527V55.0384C25.143 54.5143 24.9999 54.1068 24.7257 53.8229C24.454 53.5342 24.0658 53.3911 23.5612 53.3911ZM36.812 56.1543C36.812 57.5226 36.5015 58.6167 35.8804 59.4391C35.2618 60.2615 34.4224 60.6739 33.3671 60.6739C32.4719 60.6739 31.7465 60.3634 31.1958 59.7375V63.9199H28.8256V51.6371H31.0236L31.1061 52.5056C31.681 51.8142 32.4282 51.4721 33.3501 51.4721C34.4442 51.4721 35.2958 51.8773 35.9023 52.6851C36.5088 53.4954 36.812 54.6089 36.812 56.0306V56.1543ZM34.4418 55.9796C34.4418 55.1548 34.2963 54.5192 34.0027 54.068C33.7116 53.6216 33.287 53.396 32.7291 53.396C31.9843 53.396 31.4748 53.6822 31.1958 54.2499V57.884C31.4845 58.4687 32.0013 58.7623 32.7461 58.7623C33.8766 58.7623 34.4418 57.8355 34.4418 55.9796ZM43.5927 59.6065C43.0056 60.3173 42.1977 60.6739 41.1643 60.6739C40.2133 60.6739 39.4879 60.3998 38.9881 59.8539C38.4884 59.3081 38.2312 58.5051 38.2215 57.4498V51.6371H40.5917V57.3673C40.5917 58.2916 41.0138 58.7526 41.8532 58.7526C42.6562 58.7526 43.2118 58.4736 43.5102 57.9156V51.6371H45.8901V60.509H43.6582L43.5927 59.6065ZM50.1768 60.509H47.7969V47.9132H50.1768V60.509ZM63.2044 58.049H58.891L58.071 60.509H55.4582L59.9002 48.5682H62.1806L66.6493 60.509H64.0341L63.2044 58.049ZM59.5557 56.0548H62.5421L61.0404 51.5862L59.5557 56.0548ZM67.2631 56.0088C67.2631 54.6453 67.5882 53.5488 68.2335 52.7167C68.8837 51.8846 69.757 51.4721 70.8536 51.4721C71.8264 51.4721 72.5857 51.8045 73.1267 52.4741L73.2238 51.6371H75.3732V60.2106C75.3732 60.9893 75.1961 61.6637 74.8443 62.2387C74.4925 62.8112 73.9952 63.2479 73.3548 63.5512C72.7143 63.8496 71.9671 64 71.1083 64C70.4581 64 69.8225 63.8714 69.2087 63.6118C68.5901 63.3522 68.1219 63.0174 67.8065 62.6074L68.8545 61.1664C69.4465 61.8263 70.1597 62.1562 71.0015 62.1562C71.6323 62.1562 72.1199 61.9888 72.4717 61.6516C72.821 61.3168 72.9933 60.8389 72.9933 60.2227V59.7472C72.4474 60.3658 71.7293 60.6739 70.839 60.6739C69.774 60.6739 68.9103 60.2567 68.2505 59.4221C67.593 58.5876 67.2631 57.4837 67.2631 56.1058V56.0088ZM69.6333 56.1786C69.6333 56.9816 69.7958 57.6123 70.1161 58.0684C70.4387 58.5245 70.8802 58.7526 71.4431 58.7526C72.166 58.7526 72.6828 58.4808 72.9933 57.9423V54.2087C72.6779 53.6677 72.166 53.396 71.4601 53.396C70.8924 53.396 70.4436 53.6288 70.1209 54.0946C69.7958 54.558 69.6333 55.2518 69.6333 56.1786ZM82.1781 53.8545C81.8554 53.8132 81.5692 53.7914 81.3266 53.7914C80.4265 53.7914 79.8394 54.0946 79.5629 54.7011V60.509H77.1927V51.6371H79.4319L79.4949 52.6948C79.9704 51.8797 80.6279 51.4721 81.4721 51.4721C81.7341 51.4721 81.9816 51.5085 82.2096 51.5765L82.1781 53.8545ZM85.8171 60.509H83.4396V51.6371H85.8171V60.509ZM83.2989 49.3421C83.2989 48.9855 83.4202 48.6919 83.658 48.4615C83.8957 48.2334 84.2208 48.1194 84.6283 48.1194C85.0335 48.1194 85.3561 48.2334 85.5963 48.4615C85.8365 48.6919 85.9578 48.9855 85.9578 49.3421C85.9578 49.6987 85.8341 49.9971 85.5915 50.2252C85.3489 50.4556 85.0286 50.5697 84.6283 50.5697C84.2281 50.5697 83.9102 50.4556 83.6652 50.2252C83.4226 49.9971 83.2989 49.6987 83.2989 49.3421Z" fill="#05A155"/>
<path fill-rule="evenodd" clip-rule="evenodd" d="M30.2769 18.4787C29.0615 19.1798 27.5161 19.2307 26.211 18.4787C24.9082 17.7266 24.1804 16.3608 24.178 14.9586C25.3958 14.2574 26.9412 14.2065 28.2439 14.9586C29.5467 15.7106 30.2769 17.0765 30.2769 18.4787Z" fill="#05A155"/>
<path fill-rule="evenodd" clip-rule="evenodd" d="M27.6301 25.8467C26.9289 27.0621 25.6141 27.8797 24.1099 27.8797C22.6058 27.8797 21.2909 27.0621 20.5874 25.8467C21.2909 24.6337 22.6058 23.8162 24.1099 23.8162C25.6141 23.8162 26.9289 24.6337 27.6301 25.8467Z" fill="#05A155"/>
<path fill-rule="evenodd" clip-rule="evenodd" d="M42.9794 10.9339C44.3428 10.143 45.2623 8.668 45.2623 6.97708C45.2623 5.28859 44.3428 3.81358 42.9794 3.02271C41.6136 3.81358 40.6965 5.28859 40.6965 6.97708C40.6965 8.668 41.6136 10.143 42.9794 10.9339Z" fill="#05A155"/>
<path fill-rule="evenodd" clip-rule="evenodd" d="M56.2715 18.1729C57.4869 18.874 59.0323 18.925 60.3375 18.1729C61.6402 17.4208 62.368 16.055 62.3704 14.6528C61.1526 13.9517 59.6072 13.9007 58.3045 14.6528C57.0017 15.4048 56.2715 16.7707 56.2715 18.1729Z" fill="#05A155"/>
<path fill-rule="evenodd" clip-rule="evenodd" d="M58.3264 25.8467C59.03 27.0621 60.3424 27.8797 61.849 27.8797C63.3531 27.8797 64.6655 27.0621 65.3691 25.8467C64.6655 24.6337 63.3531 23.8162 61.849 23.8162C60.3424 23.8162 59.03 24.6337 58.3264 25.8467Z" fill="#05A155"/>
<path fill-rule="evenodd" clip-rule="evenodd" d="M37.8753 6.80249C38.8675 5.81026 39.3163 4.32798 38.9282 2.87481C38.5376 1.42163 37.4095 0.363899 36.0534 0C35.0611 0.994658 34.6123 2.47452 35.0005 3.92769C35.3911 5.38086 36.5216 6.43859 37.8753 6.80249Z" fill="#05A155"/>
<path fill-rule="evenodd" clip-rule="evenodd" d="M29.0372 11.9067C29.3987 10.5481 29.0493 9.04159 27.9843 7.979C26.9217 6.91399 25.4128 6.56464 24.0566 6.92612C23.6952 8.28225 24.0469 9.78879 25.1095 10.8538C26.1745 11.9164 27.6811 12.2682 29.0372 11.9067Z" fill="#05A155"/>
<path fill-rule="evenodd" clip-rule="evenodd" d="M23.9353 20.7446C23.569 19.3885 22.5112 18.2579 21.0581 17.8698C19.6049 17.4792 18.125 17.9304 17.1328 18.9227C17.4967 20.2764 18.5544 21.4069 20.0076 21.7975C21.4608 22.1856 22.9406 21.7368 23.9353 20.7446Z" fill="#05A155"/>
<path fill-rule="evenodd" clip-rule="evenodd" d="M23.9353 30.9506C22.9406 29.9584 21.4608 29.5095 20.0076 29.8977C18.5544 30.2883 17.4967 31.4164 17.1328 32.7725C18.125 33.7647 19.6049 34.2136 21.0581 33.8254C22.5112 33.4348 23.569 32.3067 23.9353 30.9506Z" fill="#05A155"/>
<path fill-rule="evenodd" clip-rule="evenodd" d="M48.081 6.80249C49.4372 6.43859 50.5677 5.38086 50.9558 3.92769C51.3464 2.47452 50.8952 0.994658 49.9054 0C48.5493 0.363899 47.4187 1.42163 47.0306 2.87481C46.64 4.32798 47.0912 5.81026 48.081 6.80249Z" fill="#05A155"/>
<path fill-rule="evenodd" clip-rule="evenodd" d="M56.9216 11.9067C58.2777 12.2682 59.7842 11.9164 60.8468 10.8538C61.9118 9.78879 62.2612 8.28225 61.8997 6.92612C60.5436 6.56464 59.037 6.91399 57.972 7.979C56.9094 9.04159 56.5577 10.5481 56.9216 11.9067Z" fill="#05A155"/>
<path fill-rule="evenodd" clip-rule="evenodd" d="M62.0234 20.7446C63.0181 21.7368 64.498 22.1856 65.9511 21.795C67.4043 21.4069 68.462 20.2764 68.8259 18.9227C67.8337 17.9304 66.3514 17.4792 64.8982 17.8698C63.4451 18.2579 62.3873 19.3885 62.0234 20.7446Z" fill="#05A155"/>
<path fill-rule="evenodd" clip-rule="evenodd" d="M62.0234 30.9506C62.3873 32.3067 63.4451 33.4348 64.8982 33.8254C66.3514 34.2136 67.8337 33.7647 68.8259 32.7725C68.462 31.4164 67.4043 30.2883 65.9511 29.8977C64.498 29.5095 63.0181 29.9584 62.0234 30.9506Z" fill="#05A155"/>
<path fill-rule="evenodd" clip-rule="evenodd" d="M36.6062 15.1406C34.8934 15.1406 33.2292 14.2503 32.3122 12.6612C31.3927 11.0722 31.4558 9.18478 32.3098 7.70007C34.0225 7.7025 35.6892 8.59042 36.6062 10.1819C37.5232 11.7709 37.4626 13.6583 36.6062 15.1406Z" fill="#05A155"/>
<path fill-rule="evenodd" clip-rule="evenodd" d="M49.35 15.1406C51.0628 15.1406 52.7294 14.2503 53.6465 12.6612C54.5635 11.0722 54.5028 9.18478 53.6465 7.70007C51.9337 7.7025 50.2695 8.59042 49.3525 10.1819C48.433 11.7709 48.4961 13.6583 49.35 15.1406Z" fill="#05A155"/>
<path fill-rule="evenodd" clip-rule="evenodd" d="M56.2715 33.522C56.2715 34.9243 57.0017 36.2901 58.3045 37.0422C59.6072 37.7942 61.1526 37.7433 62.3704 37.0422C62.368 35.6375 61.6402 34.2741 60.3375 33.522C59.0323 32.77 57.4869 32.8209 56.2715 33.522Z" fill="#05A155"/>
<path fill-rule="evenodd" clip-rule="evenodd" d="M29.6873 33.522C29.6849 34.9243 28.9571 36.2901 27.6543 37.0422C26.3516 37.7942 24.8038 37.7433 23.5884 37.0422C23.5884 35.6375 24.3186 34.2741 25.6214 33.522C26.9241 32.77 28.4719 32.8209 29.6873 33.522Z" fill="#05A155"/>
<path d="M52.2464 32.0837H49.7695L47.2489 34.6019V42.0158H60.6622V43.7649H45.4998V33.879L49.0441 30.3346H52.2464V32.0837Z" fill="#A05148"/>
<path d="M42.3679 30.4631L45.8856 26.9455V22.29L47.7585 20.4147L48.9885 21.6519L47.6347 23.0056V27.3069L47.3776 27.9256L43.6052 31.7004L42.3679 30.4631Z" fill="#A05148"/>
<path d="M54.3982 24.7425L50.9582 28.1826H46.7588V26.4334H50.2352L53.161 23.5077L54.3982 24.7425Z" fill="#A05148"/>
<path d="M53.7871 30.3056C53.6634 30.3056 53.5469 30.3274 53.445 30.3711C53.3383 30.4148 53.2413 30.4803 53.1563 30.5652C52.9938 30.7277 52.8943 30.9509 52.8943 31.1959C52.8943 31.3221 52.9186 31.4385 52.9598 31.5404C53.0035 31.6447 53.0714 31.7442 53.1563 31.8291C53.2413 31.9116 53.3383 31.9795 53.445 32.0232C53.5469 32.0644 53.6634 32.0887 53.7871 32.0887C53.9133 32.0887 54.0273 32.0644 54.1316 32.0232C54.2359 31.9795 54.3329 31.9116 54.4179 31.8291C54.5028 31.7442 54.5707 31.6447 54.6144 31.5404C54.6556 31.4385 54.6799 31.3221 54.6799 31.1959C54.6799 31.0746 54.6556 30.9582 54.6144 30.8563V30.8539C54.5707 30.7496 54.5028 30.6501 54.4179 30.5652C54.3329 30.4803 54.2359 30.4148 54.1316 30.3711C54.0273 30.3274 53.9133 30.3056 53.7871 30.3056ZM52.9526 29.1751C53.2121 29.0659 53.496 29.0077 53.7871 29.0077C54.0807 29.0077 54.3621 29.0659 54.6216 29.1751C54.8934 29.2867 55.136 29.4492 55.3349 29.6481C55.5338 29.8471 55.6964 30.0873 55.808 30.359H55.8104C55.9171 30.6186 55.9778 30.9024 55.9778 31.1959C55.9778 31.4895 55.9171 31.7709 55.8104 32.0329C55.6964 32.3046 55.5338 32.5472 55.3349 32.7462C55.136 32.9451 54.8958 33.1076 54.6216 33.2192C54.3621 33.326 54.0807 33.3866 53.7871 33.3866C53.496 33.3866 53.2121 33.326 52.9526 33.2192C52.6809 33.1076 52.4383 32.9451 52.2393 32.7462C52.0404 32.5472 51.8778 32.3046 51.7638 32.0329C51.6571 31.7709 51.5964 31.4895 51.5964 31.1959C51.5964 30.5919 51.8415 30.0436 52.2393 29.6481C52.4383 29.4492 52.6809 29.2867 52.9526 29.1751Z" fill="#A05148"/>
<path d="M54.8692 22.1418C54.7454 22.1418 54.629 22.166 54.5271 22.2097C54.4228 22.2509 54.3233 22.3189 54.2384 22.4038C54.1535 22.4887 54.088 22.5857 54.0443 22.6925C54.0006 22.7944 53.9788 22.9108 53.9788 23.0345C53.9788 23.1607 54.0006 23.2747 54.0443 23.379C54.088 23.4834 54.1535 23.5804 54.2384 23.6653C54.3233 23.7502 54.4228 23.8181 54.5271 23.8618C54.629 23.9031 54.7454 23.9273 54.8692 23.9273C54.9953 23.9273 55.1117 23.9031 55.2136 23.8618C55.318 23.8181 55.415 23.7502 55.4999 23.6653C55.5848 23.5804 55.6527 23.4834 55.6964 23.379C55.7377 23.2747 55.7619 23.1607 55.7619 23.0345C55.7619 22.9108 55.7377 22.7944 55.6964 22.6925C55.6527 22.5857 55.5848 22.4887 55.4999 22.4038C55.415 22.3189 55.318 22.2509 55.2136 22.2097C55.1117 22.166 54.9953 22.1418 54.8692 22.1418ZM54.0346 21.0113C54.2942 20.9045 54.578 20.8439 54.8692 20.8439C55.1627 20.8439 55.4441 20.9045 55.7061 21.0113C55.9778 21.1253 56.2204 21.2878 56.4194 21.4868C56.6183 21.6857 56.7808 21.9283 56.8924 22.2C57.0016 22.4596 57.0598 22.7434 57.0598 23.0345C57.0598 23.3281 57.0016 23.6095 56.8924 23.8691C56.7808 24.1432 56.6183 24.3834 56.4194 24.5823C56.2204 24.7813 55.9778 24.9438 55.7061 25.0578C55.4441 25.1646 55.1627 25.2252 54.8692 25.2252C54.578 25.2252 54.2942 25.1646 54.0346 25.0578C53.7629 24.9438 53.5203 24.7813 53.3214 24.5823C53.1224 24.3834 52.9599 24.1432 52.8483 23.8691C52.7391 23.6095 52.6809 23.3281 52.6809 23.0345C52.6809 22.7434 52.7391 22.4596 52.8483 22.2C52.9599 21.9283 53.1224 21.6857 53.3214 21.4868C53.5203 21.2878 53.7629 21.1253 54.0346 21.0113Z" fill="#A05148"/>
<path d="M49.4639 19.0513C49.3401 19.0513 49.2261 19.0756 49.1242 19.1168H49.1218C49.0151 19.1605 48.918 19.2284 48.8331 19.3133C48.7482 19.3982 48.6803 19.4953 48.6366 19.5996C48.5954 19.7039 48.5711 19.8179 48.5711 19.9441C48.5711 20.0678 48.5954 20.1843 48.6366 20.2862C48.6803 20.3929 48.7482 20.4899 48.8331 20.5749C48.9932 20.7374 49.2164 20.8369 49.4639 20.8369C49.59 20.8369 49.704 20.8126 49.8084 20.7714C49.9127 20.7277 50.0097 20.6598 50.0946 20.5749C50.1795 20.4899 50.2475 20.3929 50.2911 20.2862C50.3324 20.1843 50.3566 20.0678 50.3566 19.9441C50.3566 19.8179 50.3324 19.7039 50.2911 19.5996C50.2475 19.4953 50.1795 19.3982 50.0946 19.3133C50.0097 19.2284 49.9127 19.1605 49.8084 19.1168C49.704 19.0756 49.59 19.0513 49.4639 19.0513ZM48.6269 17.9232V17.9208C48.8865 17.8141 49.1703 17.7534 49.4639 17.7534C49.7574 17.7534 50.0388 17.8141 50.2984 17.9208C50.5701 18.0348 50.8127 18.1974 51.0116 18.3963C51.2106 18.5952 51.3731 18.8378 51.4871 19.1095C51.5939 19.3691 51.6545 19.6505 51.6545 19.9441C51.6545 20.2376 51.5939 20.5191 51.4871 20.7786C51.3731 21.0503 51.2106 21.2929 51.0116 21.4919C50.8127 21.6908 50.5725 21.8533 50.2984 21.9674C50.0388 22.0741 49.7574 22.1348 49.4639 22.1348C48.8598 22.1348 48.3115 21.8897 47.9161 21.4919C47.7171 21.2929 47.5546 21.0503 47.4406 20.7786C47.3338 20.5191 47.2732 20.2376 47.2732 19.9441C47.2732 19.6505 47.3338 19.3691 47.4406 19.1095C47.5546 18.8354 47.7171 18.5952 47.9161 18.3963C48.115 18.1974 48.3552 18.0348 48.6269 17.9232Z" fill="#A05148"/>
<path d="M42.9648 15.0119C42.8387 15.0119 42.7222 15.0362 42.6204 15.0774C42.516 15.1211 42.419 15.189 42.3341 15.2739L42.3317 15.2715C42.2492 15.3564 42.1837 15.4534 42.1376 15.5602C42.0963 15.6621 42.0721 15.7785 42.0721 15.9047C42.0721 16.0284 42.0963 16.1448 42.1376 16.2467C42.1812 16.3535 42.2492 16.4505 42.3341 16.5354C42.419 16.6203 42.516 16.6858 42.6204 16.7295C42.7222 16.7732 42.8387 16.7974 42.9648 16.7974C43.0886 16.7974 43.205 16.7732 43.3069 16.7295C43.4112 16.6883 43.5107 16.6203 43.5956 16.5354C43.6805 16.4505 43.746 16.3535 43.7897 16.2467C43.8333 16.1448 43.8576 16.0284 43.8576 15.9047C43.8576 15.7785 43.8333 15.6621 43.7897 15.5602C43.746 15.4534 43.6805 15.3564 43.5956 15.2715V15.2739C43.5107 15.189 43.4112 15.1211 43.3069 15.0774C43.205 15.0362 43.0886 15.0119 42.9648 15.0119ZM42.1303 13.8814C42.3899 13.7746 42.6713 13.714 42.9648 13.714C43.256 13.714 43.5398 13.7746 43.7994 13.8814C44.0711 13.993 44.3137 14.158 44.5126 14.3545V14.3569C44.7116 14.5582 44.8765 14.8008 44.9857 15.0701C45.0949 15.3297 45.1531 15.6111 45.1531 15.9047C45.1531 16.1958 45.0949 16.4796 44.9857 16.7392C44.8741 17.0109 44.7116 17.2535 44.5126 17.4524C44.3137 17.6514 44.0711 17.8139 43.7994 17.9255C43.5398 18.0347 43.256 18.0929 42.9648 18.0929C42.6713 18.0929 42.3899 18.0347 42.1303 17.9255C41.8562 17.8139 41.616 17.6514 41.4171 17.4524C41.2157 17.2535 41.0556 17.0109 40.9416 16.7392C40.8348 16.4796 40.7742 16.1958 40.7742 15.9047C40.7742 15.6111 40.8348 15.3297 40.9416 15.0701C41.0532 14.8008 41.2157 14.5582 41.4171 14.3569V14.3545C41.616 14.158 41.8562 13.993 42.1303 13.8814Z" fill="#A05148"/>
<path d="M42.0864 43.7644V17.4448H43.8404V43.7644H42.0864Z" fill="#A05148"/>
<path d="M25.2964 42.0158H38.6854V37.5932L36.6234 35.5311H35.0513V33.782H37.3487L40.4346 36.8703V43.7649H25.2964V42.0158Z" fill="#A05148"/>
<path d="M33.5105 33.7454C33.3868 33.7454 33.2703 33.7697 33.1684 33.8133C33.0617 33.8546 32.9646 33.9225 32.8797 34.0074C32.7948 34.0923 32.7269 34.1894 32.6832 34.2961C32.642 34.398 32.6177 34.5145 32.6177 34.6382C32.6177 34.7643 32.642 34.8784 32.6832 34.9827C32.7269 35.087 32.7948 35.184 32.8797 35.2689C32.9646 35.3539 33.0617 35.4218 33.1684 35.4654C33.2703 35.5067 33.3868 35.5309 33.5105 35.5309C33.6366 35.5309 33.7507 35.5067 33.855 35.4654C33.9593 35.4218 34.0563 35.3539 34.1413 35.2689C34.2262 35.184 34.2941 35.087 34.3378 34.9827C34.379 34.8784 34.4033 34.7643 34.4033 34.6382C34.4033 34.5145 34.379 34.398 34.3378 34.2961C34.2941 34.1894 34.2262 34.0923 34.1413 34.0074C34.0563 33.9225 33.9593 33.8546 33.855 33.8133C33.7507 33.7697 33.6366 33.7454 33.5105 33.7454ZM32.676 32.6149C32.9355 32.5082 33.217 32.4475 33.5105 32.4475C33.804 32.4475 34.0855 32.5082 34.345 32.6149C34.6167 32.7289 34.8593 32.8915 35.0583 33.0904C35.2572 33.2893 35.4198 33.5319 35.5338 33.8036C35.6405 34.0632 35.7012 34.3471 35.7012 34.6382C35.7012 34.9317 35.6405 35.2131 35.5338 35.4727C35.4198 35.7469 35.2572 35.987 35.0583 36.186C34.8593 36.3849 34.6167 36.5474 34.345 36.6615C34.0855 36.7682 33.804 36.8289 33.5105 36.8289C33.217 36.8289 32.9355 36.7682 32.676 36.6615C32.4042 36.5474 32.1616 36.3849 31.9627 36.186C31.7638 35.987 31.6012 35.7469 31.4872 35.4727C31.3805 35.2131 31.3198 34.9317 31.3198 34.6382C31.3198 34.3471 31.3805 34.0632 31.4872 33.8036C31.6012 33.5319 31.7638 33.2893 31.9627 33.0904C32.1616 32.8915 32.4042 32.7289 32.676 32.6149Z" fill="#A05148"/>
<path d="M42.3293 35.2617L37.9237 30.582L37.6859 29.9852V25.0337L35.5146 21.9672L36.9363 20.9629L39.4351 24.4927V29.6407L43.6005 34.0657L42.3293 35.2617Z" fill="#A05148"/>
<path d="M33.3383 27.4912L34.7551 29.1093H38.5591V30.8585H33.9691L32.0259 28.6387L33.3383 27.4912Z" fill="#A05148"/>
<path d="M31.8124 24.7208C32.1083 24.7402 32.3873 24.8202 32.6372 24.944C32.8968 25.0725 33.1248 25.2496 33.314 25.4656C33.5008 25.679 33.6488 25.9313 33.741 26.2079C33.8308 26.4723 33.872 26.7586 33.8526 27.0522C33.8332 27.3457 33.7531 27.6247 33.6294 27.8746C33.5008 28.1341 33.3237 28.3646 33.1078 28.5514C32.8919 28.7406 32.642 28.8886 32.3679 28.9808H32.3655C32.101 29.0682 31.8148 29.1094 31.5212 29.09C31.2277 29.0706 30.9487 28.993 30.6988 28.8692C30.4392 28.7406 30.2088 28.5611 30.022 28.3452C29.8327 28.1317 29.6872 27.8818 29.595 27.6053L29.5926 27.6077C29.5028 27.3408 29.464 27.0546 29.4834 26.761C29.5028 26.4651 29.5804 26.1861 29.7042 25.9362C29.8327 25.6766 30.0123 25.4461 30.2258 25.2593C30.4417 25.0701 30.694 24.9246 30.9657 24.8324H30.9681C31.235 24.7426 31.5188 24.7014 31.8124 24.7208ZM32.0647 26.1036C31.9628 26.0551 31.8487 26.0211 31.7274 26.0138C31.6061 26.0066 31.4897 26.0211 31.383 26.0575C31.2689 26.0963 31.1646 26.157 31.0797 26.2322C30.9924 26.3098 30.9196 26.402 30.8662 26.5087C30.8153 26.6106 30.7837 26.7246 30.7765 26.8459C30.7692 26.9672 30.7837 27.0837 30.8201 27.1904V27.1929C30.8589 27.3045 30.9172 27.4063 30.9948 27.4937C31.07 27.581 31.1646 27.6538 31.2714 27.7072C31.3733 27.7581 31.4873 27.7897 31.6086 27.7969C31.7299 27.8042 31.8463 27.7897 31.9531 27.7533C32.0671 27.7145 32.169 27.6538 32.2563 27.5786C32.3437 27.5034 32.4164 27.4088 32.4698 27.302C32.5183 27.2001 32.5499 27.0861 32.5596 26.9648C32.5668 26.8435 32.5499 26.7246 32.5135 26.6179C32.4771 26.5063 32.4164 26.4044 32.3412 26.3171C32.2636 26.2297 32.1714 26.157 32.0647 26.1036Z" fill="#A05148"/>
<path d="M35.7038 18.0494C35.995 18.0979 36.2642 18.2046 36.502 18.355C36.7446 18.5079 36.9556 18.7092 37.1206 18.9445C37.2856 19.1774 37.4069 19.4443 37.47 19.7233C37.533 19.9974 37.5427 20.2861 37.4942 20.5748C37.4433 20.8659 37.3365 21.1352 37.1885 21.373C37.0333 21.618 36.8319 21.8266 36.6015 21.9916H36.599C36.3637 22.1566 36.0993 22.2779 35.8179 22.3409C35.5461 22.404 35.2575 22.4137 34.9663 22.3652C34.6752 22.3143 34.4059 22.2075 34.1706 22.0571C33.9232 21.9018 33.7121 21.7005 33.5471 21.4676H33.5496C33.3846 21.2371 33.2657 20.9703 33.2002 20.6888C33.1396 20.4147 33.1274 20.126 33.1784 19.8373C33.2269 19.5462 33.3336 19.2769 33.4841 19.0392C33.6369 18.7966 33.8382 18.5855 34.0736 18.4205V18.4181C34.304 18.2556 34.5685 18.1367 34.8523 18.0712C35.1264 18.0105 35.4151 17.9984 35.7038 18.0494ZM35.813 19.4492C35.7184 19.3885 35.6068 19.3473 35.4879 19.3254C35.3642 19.306 35.2477 19.3084 35.1386 19.3351C35.0246 19.3594 34.9154 19.4103 34.8184 19.4783L34.8159 19.4758C34.7237 19.5413 34.6437 19.6287 34.5782 19.7306C34.52 19.8252 34.4763 19.9344 34.4569 20.0557C34.435 20.177 34.4399 20.2958 34.4642 20.405C34.4884 20.519 34.5369 20.6258 34.6049 20.7204L34.6073 20.7228C34.6752 20.8198 34.7601 20.8999 34.8596 20.963C34.9542 21.0236 35.0634 21.0649 35.1847 21.0867C35.306 21.1061 35.4248 21.1037 35.534 21.0794C35.6505 21.0527 35.7572 21.0042 35.8518 20.9387V20.9363C35.9464 20.8684 36.0289 20.781 36.092 20.6816C36.1526 20.5869 36.1963 20.4778 36.2157 20.3565C36.2376 20.2352 36.2327 20.1163 36.2084 20.0071C36.1818 19.8907 36.1332 19.7815 36.0653 19.6893C35.9998 19.5947 35.9149 19.5122 35.813 19.4492Z" fill="#A05148"/>
</svg>
