<svg width="20" height="20" viewBox="0 0 20 20" fill="none" xmlns="http://www.w3.org/2000/svg">
<g clip-path="url(#clip0_16560_35733)">
<path d="M11.5241 13.8041C11.6961 13.8831 11.89 13.9012 12.0737 13.8553C12.2574 13.8094 12.42 13.7023 12.5347 13.5516L12.8305 13.1642C12.9857 12.9573 13.1869 12.7893 13.4183 12.6736C13.6497 12.5579 13.9048 12.4977 14.1635 12.4977H16.663C17.105 12.4977 17.5288 12.6732 17.8413 12.9857C18.1538 13.2982 18.3294 13.7221 18.3294 14.164V16.6635C18.3294 17.1055 18.1538 17.5293 17.8413 17.8418C17.5288 18.1543 17.105 18.3299 16.663 18.3299C12.6856 18.3299 8.87102 16.7498 6.05854 13.9373C3.24605 11.1248 1.66602 7.31029 1.66602 3.33284C1.66602 2.8909 1.84158 2.46706 2.15407 2.15456C2.46657 1.84206 2.89041 1.6665 3.33235 1.6665H5.83185C6.27379 1.6665 6.69763 1.84206 7.01013 2.15456C7.32263 2.46706 7.49819 2.8909 7.49819 3.33284V5.83234C7.49819 6.09103 7.43796 6.34617 7.32227 6.57755C7.20658 6.80893 7.03861 7.01019 6.83165 7.16541L6.44173 7.45785C6.28878 7.57464 6.18097 7.74078 6.13662 7.92805C6.09227 8.11532 6.11412 8.31216 6.19845 8.48515C7.33712 10.7979 9.20987 12.6683 11.5241 13.8041Z" stroke="#99A1AF" stroke-width="1.66633" stroke-linecap="round" stroke-linejoin="round"/>
</g>
<defs>
<clipPath id="clip0_16560_35733">
<rect width="19.996" height="19.996" fill="white"/>
</clipPath>
</defs>
</svg>
