<svg width="16" height="16" viewBox="0 0 16 16" fill="none" xmlns="http://www.w3.org/2000/svg">
<path d="M2.61881 8.00284C2.61881 5.74548 4.0161 3.8086 5.99104 3.01096L6.99877 0.986816C3.56347 1.47485 0.912964 4.43486 0.912964 8.00284C0.912964 11.249 3.10694 13.9922 6.08982 14.8281L6.28365 13.1034C4.15545 12.3853 2.61881 10.3702 2.61881 8.00284Z" fill="#D94841"/>
<path d="M15.0871 8.00286C15.0871 4.75734 12.894 2.01466 9.91218 1.17816L9.71398 2.9016C11.8434 3.61896 13.3812 5.63467 13.3812 8.00286C13.3812 10.2471 12.0002 12.1744 10.0435 12.9807L9.00781 15.0179C12.4399 14.5271 15.0871 11.5686 15.0871 8.00286Z" fill="#D94841"/>
<path d="M12.0565 7.14401C12.1237 7.01186 12.1174 6.86671 12.0398 6.74037C11.9623 6.61398 11.8246 6.5636 11.6763 6.5636H8.43412L9.13208 0.49576C9.15585 0.290047 9.02834 0.0769228 8.82972 0.0179647C8.78872 0.00581053 8.7472 0 8.7062 0C8.54873 0 8.3999 0.08961 8.3266 0.236792L3.94189 9.04725C3.87611 9.1794 3.88336 9.35537 3.96108 9.48096C4.03886 9.6065 4.17597 9.70875 4.32368 9.70875H7.52315L6.86725 15.5482C6.84433 15.7531 6.97125 15.9255 7.16881 15.9845C7.20938 15.9967 7.25048 16 7.29105 16C7.4482 16 7.59703 15.9127 7.67129 15.7666L12.0565 7.14401Z" fill="#D94841"/>
</svg>
