<svg width="20" height="20" viewBox="0 0 20 20" fill="none" xmlns="http://www.w3.org/2000/svg">
<path d="M18.9962 17.6852C17.665 15.3837 15.6135 13.7334 13.2194 12.9511C14.4036 12.2461 15.3237 11.1719 15.8383 9.89339C16.3529 8.61488 16.4337 7.20279 16.0681 5.87397C15.7025 4.54515 14.9108 3.37307 13.8146 2.53774C12.7184 1.70241 11.3783 1.25 10.0001 1.25C8.62193 1.25 7.28184 1.70241 6.18564 2.53774C5.08945 3.37307 4.29777 4.54515 3.93218 5.87397C3.56659 7.20279 3.64731 8.61488 4.16193 9.89339C4.67656 11.1719 5.59664 12.2461 6.78087 12.9511C4.38676 13.7325 2.33528 15.3828 1.00405 17.6852C0.955234 17.7648 0.922853 17.8533 0.90882 17.9456C0.894787 18.038 0.899387 18.1322 0.922347 18.2227C0.945307 18.3132 0.986164 18.3982 1.04251 18.4726C1.09885 18.5471 1.16953 18.6095 1.25039 18.6562C1.33125 18.703 1.42064 18.733 1.5133 18.7446C1.60596 18.7562 1.7 18.7491 1.78987 18.7238C1.87975 18.6984 1.96364 18.6554 2.0366 18.5971C2.10955 18.5388 2.1701 18.4665 2.21466 18.3844C3.86143 15.5384 6.77213 13.8392 10.0001 13.8392C13.2281 13.8392 16.1388 15.5384 17.7856 18.3844C17.8301 18.4665 17.8907 18.5388 17.9636 18.5971C18.0366 18.6554 18.1205 18.6984 18.2104 18.7238C18.3002 18.7491 18.3943 18.7562 18.4869 18.7446C18.5796 18.733 18.669 18.703 18.7499 18.6562C18.8307 18.6095 18.9014 18.5471 18.9577 18.4726C19.0141 18.3982 19.0549 18.3132 19.0779 18.2227C19.1009 18.1322 19.1055 18.038 19.0914 17.9456C19.0774 17.8533 19.045 17.7648 18.9962 17.6852ZM5.10525 7.54578C5.10525 6.57767 5.39233 5.6313 5.93019 4.82634C6.46804 4.02138 7.23252 3.39399 8.12694 3.02351C9.02136 2.65303 10.0056 2.5561 10.9551 2.74497C11.9046 2.93384 12.7768 3.40003 13.4613 4.08459C14.1459 4.76915 14.6121 5.64133 14.8009 6.59084C14.9898 7.54035 14.8929 8.52455 14.5224 9.41897C14.1519 10.3134 13.5245 11.0779 12.7196 11.6157C11.9146 12.1536 10.9682 12.4407 10.0001 12.4407C8.70235 12.4393 7.45813 11.9231 6.54046 11.0054C5.6228 10.0878 5.10664 8.84356 5.10525 7.54578Z" fill="#004E7E"/>
</svg>
