<svg width="36" height="24" viewBox="0 0 36 24" fill="none" xmlns="http://www.w3.org/2000/svg">
<rect x="10.0688" y="2.2251" width="7.80861" height="3.21531" fill="#EA9696"/>
<path d="M2.37509 7.60627L2.26025 10.5506H6.68131L6.73872 10.5505C6.34937 5.10065 9.03537 5.67481 10.9875 5.67481V2.00021C3.30631 1.5409 2.37509 4.92379 2.37509 7.60627Z" fill="#9E0000"/>
<rect width="6.35426" height="3.98699" transform="translate(1.24219 9.90723)" fill="#9E0000"/>
<rect x="1.45654" y="13.8232" width="5.97129" height="8.695" fill="#EA9696"/>
<path d="M1.22656 11.1533V13.8944H7.58082V11.1533H1.22656Z" fill="#9E0000"/>
<path d="M6.68137 9.90771H2.26032L1.24219 11.1536H7.56823L6.68137 9.90771Z" fill="#9E0000"/>
<path d="M18.981 2.27078V5.40369C18.981 5.48986 18.9111 5.55972 18.8249 5.55972H17.759C17.6728 5.55972 17.603 5.48986 17.603 5.40369V2.27078C17.603 2.18461 17.6728 2.11475 17.759 2.11475H18.8249C18.9111 2.11475 18.981 2.18461 18.981 2.27078Z" fill="#9E0000"/>
<rect x="0.296387" y="22.5" width="35.5" height="1" rx="0.5" fill="#919296"/>
</svg>
