<svg id="e42j0ADNxbK1" xmlns="http://www.w3.org/2000/svg" xmlns:xlink="http://www.w3.org/1999/xlink" viewBox="0 0 72 48" shape-rendering="geometricPrecision" text-rendering="geometricPrecision" project-id="cc1edf015aef46fbb746c3dd9476e511" export-id="d29f455313f84f4a9e028351c76d3a58" cached="false">
<style><![CDATA[
#e42j0ADNxbK2_ts {animation: e42j0ADNxbK2_ts__ts 3000ms linear infinite normal forwards}@keyframes e42j0ADNxbK2_ts__ts { 0% {transform: translate(37.9619px,5.14893px) scale(-0.215388,0.112008)} 16.666667% {transform: translate(37.9619px,5.14893px) scale(1,1)} 100% {transform: translate(37.9619px,5.14893px) scale(1,1)}} #e42j0ADNxbK3_to {animation: e42j0ADNxbK3_to__to 3000ms linear infinite normal forwards}@keyframes e42j0ADNxbK3_to__to { 0% {offset-distance: 0%} 40% {offset-distance: 0%} 56.666667% {offset-distance: 100%} 100% {offset-distance: 100%}} #e42j0ADNxbK3_tr {animation: e42j0ADNxbK3_tr__tr 3000ms linear infinite normal forwards}@keyframes e42j0ADNxbK3_tr__tr { 0% {transform: rotate(0deg)} 40% {transform: rotate(0deg)} 56.666667% {transform: rotate(53.920366deg)} 100% {transform: rotate(53.920366deg)}} #e42j0ADNxbK3 {animation: e42j0ADNxbK3_c_o 3000ms linear infinite normal forwards}@keyframes e42j0ADNxbK3_c_o { 0% {opacity: 0} 40% {opacity: 0} 50% {opacity: 1} 100% {opacity: 1}} #e42j0ADNxbK4_to {animation: e42j0ADNxbK4_to__to 3000ms linear infinite normal forwards}@keyframes e42j0ADNxbK4_to__to { 0% {offset-distance: 0%} 23.333333% {offset-distance: 0%} 40% {offset-distance: 100%} 100% {offset-distance: 100%}} #e42j0ADNxbK4_tr {animation: e42j0ADNxbK4_tr__tr 3000ms linear infinite normal forwards}@keyframes e42j0ADNxbK4_tr__tr { 0% {transform: rotate(0deg)} 23.333333% {transform: rotate(0deg)} 40% {transform: rotate(53.920366deg)} 100% {transform: rotate(53.920366deg)}} #e42j0ADNxbK4 {animation: e42j0ADNxbK4_c_o 3000ms linear infinite normal forwards}@keyframes e42j0ADNxbK4_c_o { 0% {opacity: 0} 23.333333% {opacity: 0} 33.333333% {opacity: 1} 40% {opacity: 0} 100% {opacity: 0}} #e42j0ADNxbK5_to {animation: e42j0ADNxbK5_to__to 3000ms linear infinite normal forwards}@keyframes e42j0ADNxbK5_to__to { 0% {offset-distance: 0%} 10% {offset-distance: 0%} 26.666667% {offset-distance: 100%} 100% {offset-distance: 100%}} #e42j0ADNxbK5_tr {animation: e42j0ADNxbK5_tr__tr 3000ms linear infinite normal forwards}@keyframes e42j0ADNxbK5_tr__tr { 0% {transform: rotate(0deg)} 10% {transform: rotate(0deg)} 26.666667% {transform: rotate(8.112671deg)} 100% {transform: rotate(8.112671deg)}} #e42j0ADNxbK5 {animation: e42j0ADNxbK5_c_o 3000ms linear infinite normal forwards}@keyframes e42j0ADNxbK5_c_o { 0% {opacity: 0} 10% {opacity: 0} 16.666667% {opacity: 1} 23.333333% {opacity: 0} 100% {opacity: 0}} #e42j0ADNxbK6_to {animation: e42j0ADNxbK6_to__to 3000ms linear infinite normal forwards}@keyframes e42j0ADNxbK6_to__to { 0% {offset-distance: 0%} 53.333333% {offset-distance: 0%} 70% {offset-distance: 100%} 100% {offset-distance: 100%}} #e42j0ADNxbK6_tr {animation: e42j0ADNxbK6_tr__tr 3000ms linear infinite normal forwards}@keyframes e42j0ADNxbK6_tr__tr { 0% {transform: rotate(0deg)} 53.333333% {transform: rotate(0deg)} 70% {transform: rotate(53.920366deg)} 100% {transform: rotate(53.920366deg)}} #e42j0ADNxbK6 {animation: e42j0ADNxbK6_c_o 3000ms linear infinite normal forwards}@keyframes e42j0ADNxbK6_c_o { 0% {opacity: 0} 53.333333% {opacity: 0} 63.333333% {opacity: 1} 100% {opacity: 1}} #e42j0ADNxbK7 {animation: e42j0ADNxbK7_c_o 3000ms linear infinite normal forwards}@keyframes e42j0ADNxbK7_c_o { 0% {opacity: 0} 40% {opacity: 0} 46.666667% {opacity: 1} 100% {opacity: 1}} #e42j0ADNxbK8 {animation: e42j0ADNxbK8_c_o 3000ms linear infinite normal forwards}@keyframes e42j0ADNxbK8_c_o { 0% {opacity: 0} 30% {opacity: 0} 36.666667% {opacity: 1} 100% {opacity: 1}} #e42j0ADNxbK9 {animation: e42j0ADNxbK9_c_o 3000ms linear infinite normal forwards}@keyframes e42j0ADNxbK9_c_o { 0% {opacity: 0} 50% {opacity: 0} 56.666667% {opacity: 1} 100% {opacity: 1}} #e42j0ADNxbK10 {animation: e42j0ADNxbK10_c_o 3000ms linear infinite normal forwards}@keyframes e42j0ADNxbK10_c_o { 0% {opacity: 0} 60% {opacity: 0} 66.666667% {opacity: 1} 100% {opacity: 1}}
]]></style>
<g id="e42j0ADNxbK2_ts" transform="translate(37.9619,5.14893) scale(-0.215388,0.112008)"><path d="M50.1213,36.8427l.5036-3.3265C52.064,12.3748,43.9335,5.79576,39.6884,5.14893h-1.7268v5.86917c6.1014,7.6879,4.461,20.6193,2.878,25.8246h9.2817Z" transform="translate(-37.9619,-5.148929)" fill="#56cdf7"/></g><g id="e42j0ADNxbK3_to" style="offset-path:path('M42.739601,13.3122C48.120356,19.840571,47.842814,34.609546,46.739601,41.3122');offset-rotate:0deg"><g id="e42j0ADNxbK3_tr" transform="rotate(0)"><path id="e42j0ADNxbK3" d="M44.8296,16.0592c-.571-1.6744-1.0964-4.0028-4.18-5.494" transform="translate(-42.739601,-13.3122)" opacity="0" fill="none" stroke="#8fdff8" stroke-width="0.480114" stroke-linecap="round"/></g></g><g id="e42j0ADNxbK4_to" style="offset-path:path('M42.739601,13.3122C48.120356,19.840571,47.842814,45.609546,46.739601,52.3122');offset-rotate:0deg"><g id="e42j0ADNxbK4_tr" transform="rotate(0)"><path id="e42j0ADNxbK4" d="M44.8296,16.0592c-.571-1.6744-1.0964-4.0028-4.18-5.494" transform="translate(-42.739601,-13.3122)" opacity="0" fill="none" stroke="#8fdff8" stroke-width="0.480114" stroke-linecap="round"/></g></g><g id="e42j0ADNxbK5_to" style="offset-path:path('M45.70442,21.00815C47.969831,25.890637,46.893945,48.299443,45.541741,52.995816');offset-rotate:0deg"><g id="e42j0ADNxbK5_tr" transform="rotate(0)"><path id="e42j0ADNxbK5" d="M46.3231,24.231c.1481-1.6283.5716-3.7641-1.3807-6.4457" transform="translate(-45.541732,-20.995816)" opacity="0" fill="none" stroke="#8fdff8" stroke-width="0.437258" stroke-linecap="round"/></g></g><g id="e42j0ADNxbK6_to" style="offset-path:path('M42.739601,13.3122C48.120356,19.840571,47.842814,34.609546,46.739601,41.3122');offset-rotate:0deg"><g id="e42j0ADNxbK6_tr" transform="rotate(0)"><path id="e42j0ADNxbK6" d="M44.8296,16.0592c-.571-1.6744-1.0964-4.0028-4.18-5.494" transform="translate(-42.739601,-13.3122)" opacity="0" fill="none" stroke="#8fdff8" stroke-width="0.480114" stroke-linecap="round"/></g></g><path id="e42j0ADNxbK7" d="M68.2822,40.9078c-2.0085,0-2.0085,1.378-4.0176,1.378-2.009,0-2.0085-1.378-4.0175-1.378-2.0091,0-2.0086,1.378-4.0176,1.378-2.0091,0-2.0091-1.378-4.0186-1.378-2.0096,0-2.0101,1.378-4.0202,1.378s-2.0091-1.378-4.0186-1.378-2.0106,1.378-4.0213,1.378c-2.0106,0-2.0111-1.378-4.0217-1.378v-2.7559c2.0106,0,2.0106,1.3779,4.0217,1.3779c2.0112,0,2.0107-1.3779,4.0213-1.3779s2.0095,1.3779,4.0186,1.3779s2.0101-1.3779,4.0202-1.3779c2.01,0,2.0095,1.3779,4.0186,1.3779c2.009,0,2.009-1.3779,4.0176-1.3779c2.0085,0,2.009,1.3779,4.0175,1.3779c2.0086,0,2.0091-1.3779,4.0176-1.3779v2.7559Z" opacity="0" fill="#0188a4"/><path id="e42j0ADNxbK8" d="M40.1508,42.2852c2.0107,0,2.0107-1.378,4.0213-1.378s2.0095,1.378,4.0186,1.378s2.0101-1.378,4.0202-1.378c2.01,0,2.0095,1.378,4.0186,1.378c2.009,0,2.009-1.378,4.0176-1.378c2.0085,0,2.009,1.378,4.0175,1.378c2.0086,0,2.0091-1.378,4.0176-1.378v4.134h-32.1531v-4.134c2.0106,0,2.0106,1.378,4.0217,1.378Z" opacity="0" fill="#56cdf7"/><path id="e42j0ADNxbK9" d="M68.2822,38.1495c-2.0085,0-2.0085,1.378-4.0176,1.378-2.009,0-2.0085-1.378-4.0175-1.378-2.0091,0-2.0086,1.378-4.0176,1.378-2.0091,0-2.0091-1.378-4.0186-1.378-2.0096,0-2.0101,1.378-4.0202,1.378s-2.0091-1.378-4.0186-1.378-2.0106,1.378-4.0213,1.378c-2.0106,0-2.0111-1.378-4.0217-1.378v-2.7559c2.0106,0,2.0106,1.3779,4.0217,1.3779c2.0112,0,2.0107-1.3779,4.0213-1.3779s2.0095,1.3779,4.0186,1.3779s2.0101-1.3779,4.0202-1.3779c2.01,0,2.0095,1.3779,4.0186,1.3779c2.009,0,2.009-1.3779,4.0176-1.3779c2.0085,0,2.009,1.3779,4.0175,1.3779c2.0086,0,2.0091-1.3779,4.0176-1.3779v2.7559Z" opacity="0" fill="#56cdf7"/><path id="e42j0ADNxbK10" d="M68.2822,35.3973c-2.0085,0-2.0085,1.378-4.0176,1.378-2.009,0-2.0085-1.378-4.0175-1.378-2.0091,0-2.0086,1.378-4.0176,1.378-2.0091,0-2.0091-1.378-4.0186-1.378-2.0096,0-2.0101,1.378-4.0202,1.378s-2.0091-1.378-4.0186-1.378-2.0106,1.378-4.0213,1.378c-2.0106,0-2.0111-1.378-4.0217-1.378v-2.7559c2.0106,0,2.0106,1.3779,4.0217,1.3779c2.0112,0,2.0107-1.3779,4.0213-1.3779s2.0095,1.3779,4.0186,1.3779s2.0101-1.3779,4.0202-1.3779c2.01,0,2.0095,1.3779,4.0186,1.3779c2.009,0,2.009-1.3779,4.0176-1.3779c2.0085,0,2.009,1.3779,4.0175,1.3779c2.0086,0,2.0091-1.3779,4.0176-1.3779v2.7559Z" opacity="0" fill="#03a7cb"/><rect width="15.6172" height="6.43062" rx="0" ry="0" transform="translate(20.1377 4.45044)" fill="#95ba95"/><path d="M4.75017,15.2123l-.22966,5.8886h8.84209l.1148-.0001c-.7787-10.8997,4.5933-9.7514,8.4977-9.7514v-7.34921C6.61261,3.08156,4.75017,9.84734,4.75017,15.2123Z" fill="#147614"/><rect width="11.9426" height="17.39" rx="0" ry="0" transform="translate(2.91309 27.6472)" fill="#95ba95"/><path d="M2.45361,22.3076v5.4821h12.70849v-5.4821h-12.70849Z" fill="#147614"/><path d="M13.3627,19.8157h-8.84207L2.48438,22.3075h12.65212l-1.7738-2.4918Z" fill="#147614"/><path d="M37.9619,4.54181v6.26579c0,.1724-.1397.3121-.3121.3121h-2.1318c-.1723,0-.3121-.1397-.3121-.3121v-6.26579c0-.17235.1398-.31207.3121-.31207h2.1318c.1724,0,.3121.13972.3121.31207Z" fill="#147614"/><rect width="71" height="2" rx="1" ry="1" transform="translate(0.593262 45)" fill="#919296"/></svg>
