<svg width="72" height="48" viewBox="0 0 72 48" fill="none" xmlns="http://www.w3.org/2000/svg">
<path d="M50.1213 36.8427L50.6249 33.5162C52.064 12.3748 43.9335 5.79576 39.6884 5.14893H37.9616L37.9616 11.0181C44.063 18.706 42.4226 31.6374 40.8396 36.8427H50.1213Z" fill="#56CDF7"/>
<path d="M44.8296 16.0592C44.2586 14.3848 43.7332 12.0564 40.6496 10.5652" stroke="#8FDFF8" stroke-width="0.480114" stroke-linecap="round"/>
<path d="M46.3231 24.231C46.4712 22.6027 46.8947 20.4669 44.9424 17.7853" stroke="#8FDFF8" stroke-width="0.437258" stroke-linecap="round"/>
<path d="M68.2822 40.9078C66.2737 40.9078 66.2737 42.2858 64.2646 42.2858C62.2556 42.2858 62.2561 40.9078 60.2471 40.9078C58.238 40.9078 58.2385 42.2858 56.2295 42.2858C54.2204 42.2858 54.2204 40.9078 52.2109 40.9078C50.2013 40.9078 50.2008 42.2858 48.1907 42.2858C46.1806 42.2858 46.1816 40.9078 44.1721 40.9078C42.1625 40.9078 42.1615 42.2858 40.1508 42.2858C38.1402 42.2858 38.1397 40.9078 36.1291 40.9078V38.1519C38.1397 38.1519 38.1397 39.5298 40.1508 39.5298C42.162 39.5298 42.1615 38.1519 44.1721 38.1519C46.1827 38.1519 46.1816 39.5298 48.1907 39.5298C50.1997 39.5298 50.2008 38.1519 52.2109 38.1519C54.2209 38.1519 54.2204 39.5298 56.2295 39.5298C58.2385 39.5298 58.2385 38.1519 60.2471 38.1519C62.2556 38.1519 62.2561 39.5298 64.2646 39.5298C66.2732 39.5298 66.2737 38.1519 68.2822 38.1519V40.9078Z" fill="#0188A4"/>
<path d="M40.1508 42.2852C42.1615 42.2852 42.1615 40.9072 44.1721 40.9072C46.1827 40.9072 46.1816 42.2852 48.1907 42.2852C50.1997 42.2852 50.2008 40.9072 52.2109 40.9072C54.2209 40.9072 54.2204 42.2852 56.2295 42.2852C58.2385 42.2852 58.2385 40.9072 60.2471 40.9072C62.2556 40.9072 62.2561 42.2852 64.2646 42.2852C66.2732 42.2852 66.2737 40.9072 68.2822 40.9072V45.0412H36.1291V40.9072C38.1397 40.9072 38.1397 42.2852 40.1508 42.2852Z" fill="#56CDF7"/>
<path d="M68.2822 38.1495C66.2737 38.1495 66.2737 39.5275 64.2646 39.5275C62.2556 39.5275 62.2561 38.1495 60.2471 38.1495C58.238 38.1495 58.2385 39.5275 56.2295 39.5275C54.2204 39.5275 54.2204 38.1495 52.2109 38.1495C50.2013 38.1495 50.2008 39.5275 48.1907 39.5275C46.1806 39.5275 46.1816 38.1495 44.1721 38.1495C42.1625 38.1495 42.1615 39.5275 40.1508 39.5275C38.1402 39.5275 38.1397 38.1495 36.1291 38.1495V35.3936C38.1397 35.3936 38.1397 36.7715 40.1508 36.7715C42.162 36.7715 42.1615 35.3936 44.1721 35.3936C46.1827 35.3936 46.1816 36.7715 48.1907 36.7715C50.1997 36.7715 50.2008 35.3936 52.2109 35.3936C54.2209 35.3936 54.2204 36.7715 56.2295 36.7715C58.2385 36.7715 58.2385 35.3936 60.2471 35.3936C62.2556 35.3936 62.2561 36.7715 64.2646 36.7715C66.2732 36.7715 66.2737 35.3936 68.2822 35.3936V38.1495Z" fill="#56CDF7"/>
<path d="M68.2822 35.3973C66.2737 35.3973 66.2737 36.7753 64.2646 36.7753C62.2556 36.7753 62.2561 35.3973 60.2471 35.3973C58.238 35.3973 58.2385 36.7753 56.2295 36.7753C54.2204 36.7753 54.2204 35.3973 52.2109 35.3973C50.2013 35.3973 50.2008 36.7753 48.1907 36.7753C46.1806 36.7753 46.1816 35.3973 44.1721 35.3973C42.1625 35.3973 42.1615 36.7753 40.1508 36.7753C38.1402 36.7753 38.1397 35.3973 36.1291 35.3973V32.6414C38.1397 32.6414 38.1397 34.0193 40.1508 34.0193C42.162 34.0193 42.1615 32.6414 44.1721 32.6414C46.1827 32.6414 46.1816 34.0193 48.1907 34.0193C50.1997 34.0193 50.2008 32.6414 52.2109 32.6414C54.2209 32.6414 54.2204 34.0193 56.2295 34.0193C58.2385 34.0193 58.2385 32.6414 60.2471 32.6414C62.2556 32.6414 62.2561 34.0193 64.2646 34.0193C66.2732 34.0193 66.2737 32.6414 68.2822 32.6414V35.3973Z" fill="#03A7CB"/>
<rect x="20.1377" y="4.45044" width="15.6172" height="6.43062" fill="#95BA95"/>
<path d="M4.75017 15.2123L4.52051 21.1009H13.3626L13.4774 21.1008C12.6987 10.2011 18.0707 11.3494 21.9751 11.3494V4.00019C6.61261 3.08156 4.75017 9.84734 4.75017 15.2123Z" fill="#147614"/>
<rect x="2.91309" y="27.6472" width="11.9426" height="17.39" fill="#95BA95"/>
<path d="M2.45361 22.3076V27.7897H15.1621V22.3076H2.45361Z" fill="#147614"/>
<path d="M13.3627 19.8157H4.52063L2.48438 22.3075H15.1365L13.3627 19.8157Z" fill="#147614"/>
<path d="M37.9619 4.54181V10.8076C37.9619 10.98 37.8222 11.1197 37.6498 11.1197H35.518C35.3457 11.1197 35.2059 10.98 35.2059 10.8076V4.54181C35.2059 4.36946 35.3457 4.22974 35.518 4.22974H37.6498C37.8222 4.22974 37.9619 4.36946 37.9619 4.54181Z" fill="#147614"/>
<rect x="0.593262" y="45" width="71" height="2" rx="1" fill="#919296"/>
</svg>
