<svg width="72" height="48" viewBox="0 0 72 48" fill="none" xmlns="http://www.w3.org/2000/svg">
<rect x="20.1377" y="4.45044" width="15.6172" height="6.43062" fill="#95BA95"/>
<path d="M4.75017 15.2123L4.52051 21.1009H13.3626L13.4774 21.1008C12.6987 10.2011 18.0707 11.3494 21.9751 11.3494V4.00019C6.61261 3.08156 4.75017 9.84734 4.75017 15.2123Z" fill="#147614"/>
<rect x="2.91284" y="27.6472" width="11.9426" height="17.39" fill="#95BA95"/>
<path d="M2.45361 22.3076V27.7897H15.1621V22.3076H2.45361Z" fill="#147614"/>
<path d="M13.3627 19.8157H4.52063L2.48438 22.3075H15.1365L13.3627 19.8157Z" fill="#147614"/>
<path d="M37.9619 4.54181V10.8076C37.9619 10.98 37.8222 11.1197 37.6498 11.1197H35.518C35.3457 11.1197 35.2059 10.98 35.2059 10.8076V4.54181C35.2059 4.36946 35.3457 4.22974 35.518 4.22974H37.6498C37.8222 4.22974 37.9619 4.36946 37.9619 4.54181Z" fill="#147614"/>
<rect x="0.593262" y="45" width="71" height="2" rx="1" fill="#919296"/>
</svg>
