<svg width="72" height="48" viewBox="0 0 72 48" fill="none" xmlns="http://www.w3.org/2000/svg">
<rect x="20.1376" y="4.45032" width="15.6172" height="6.43062" fill="#EA9696"/>
<path d="M4.75011 15.2123L4.52045 21.1009H13.3626L13.4774 21.1008C12.6987 10.2011 18.0707 11.3494 21.975 11.3494V4.00019C6.61255 3.08156 4.75011 9.84734 4.75011 15.2123Z" fill="#9E0000"/>
<rect x="2.91278" y="27.6473" width="11.9426" height="17.39" fill="#EA9696"/>
<path d="M2.45343 22.3076V27.7897H15.1619V22.3076H2.45343Z" fill="#9E0000"/>
<path d="M13.3626 19.8156H4.52051L2.48425 22.3074H15.1363L13.3626 19.8156Z" fill="#9E0000"/>
<path d="M37.9619 4.54193V10.8077C37.9619 10.9801 37.8221 11.1198 37.6498 11.1198H35.5179C35.3456 11.1198 35.2059 10.9801 35.2059 10.8077V4.54193C35.2059 4.36958 35.3456 4.22986 35.5179 4.22986H37.6498C37.8221 4.22986 37.9619 4.36958 37.9619 4.54193Z" fill="#9E0000"/>
<rect x="0.593262" y="45" width="71" height="2" rx="1" fill="#919296"/>
</svg>
