<svg width="18" height="16" viewBox="0 0 18 16" fill="none" xmlns="http://www.w3.org/2000/svg">
<path d="M0 13.6C0 12.7163 0.716345 12 1.6 12C2.48366 12 3.2 12.7163 3.2 13.6V14.4C3.2 15.2837 2.48366 16 1.6 16C0.716345 16 0 15.2837 0 14.4V13.6Z" fill="#45A845"/>
<path d="M4.7998 9.6C4.7998 8.71634 5.51615 8 6.3998 8C7.28346 8 7.9998 8.71634 7.9998 9.6V14.4C7.9998 15.2837 7.28346 16 6.3998 16C5.51615 16 4.7998 15.2837 4.7998 14.4V9.6Z" fill="#45A845"/>
<path d="M9.6001 5.6C9.6001 4.71634 10.3164 4 11.2001 4C12.0838 4 12.8001 4.71634 12.8001 5.6V14.4C12.8001 15.2837 12.0838 16 11.2001 16C10.3164 16 9.6001 15.2837 9.6001 14.4V5.6Z" fill="#BDBDBD"/>
<path d="M14.3999 1.6C14.3999 0.716344 15.1162 0 15.9999 0C16.8836 0 17.5999 0.716344 17.5999 1.6V14.4C17.5999 15.2837 16.8836 16 15.9999 16C15.1162 16 14.3999 15.2837 14.3999 14.4V1.6Z" fill="#BDBDBD"/>
</svg>
