<svg width="14" height="14" viewBox="0 0 14 14" fill="none" xmlns="http://www.w3.org/2000/svg">
<path d="M7 0C5.61553 0 4.26215 0.410543 3.11101 1.17971C1.95987 1.94888 1.06266 3.04213 0.532846 4.32122C0.00303299 5.6003 -0.13559 7.00776 0.134506 8.36563C0.404603 9.7235 1.07129 10.9708 2.05026 11.9497C3.02922 12.9287 4.2765 13.5954 5.63437 13.8655C6.99224 14.1356 8.3997 13.997 9.67879 13.4672C10.9579 12.9373 12.0511 12.0401 12.8203 10.889C13.5895 9.73785 14 8.38447 14 7C13.998 5.14409 13.2599 3.36475 11.9476 2.05242C10.6353 0.740087 8.85592 0.00195988 7 0ZM7 12.9231C5.82853 12.9231 4.68336 12.5757 3.70932 11.9249C2.73527 11.274 1.9761 10.349 1.52779 9.26666C1.07949 8.18436 0.962193 6.99343 1.19074 5.84446C1.41928 4.6955 1.9834 3.64011 2.81175 2.81175C3.64011 1.98339 4.6955 1.41928 5.84447 1.19073C6.99343 0.96219 8.18436 1.07949 9.26667 1.52779C10.349 1.97609 11.274 2.73527 11.9249 3.70931C12.5757 4.68336 12.9231 5.82853 12.9231 7C12.9213 8.57035 12.2967 10.0759 11.1863 11.1863C10.0759 12.2967 8.57035 12.9213 7 12.9231ZM10.2469 6.54365L5.93923 3.85135C5.85774 3.80042 5.76411 3.77222 5.66805 3.76969C5.57199 3.76715 5.477 3.79037 5.39294 3.83693C5.30888 3.8835 5.23881 3.95171 5.19 4.03449C5.1412 4.11726 5.11543 4.2116 5.11539 4.30769V9.69231C5.11543 9.7884 5.1412 9.88273 5.19 9.96551C5.23881 10.0483 5.30888 10.1165 5.39294 10.1631C5.477 10.2096 5.57199 10.2328 5.66805 10.2303C5.76411 10.2278 5.85774 10.1996 5.93923 10.1487L10.2469 7.45634C10.3243 7.40791 10.388 7.34063 10.4322 7.26081C10.4764 7.18098 10.4996 7.09124 10.4996 7C10.4996 6.90876 10.4764 6.81901 10.4322 6.73919C10.388 6.65937 10.3243 6.59208 10.2469 6.54365ZM6.19231 8.72106V5.27894L8.94587 7L6.19231 8.72106Z" fill="#2F80ED"/>
</svg>
